<svg width="788" height="436" viewBox="0 0 788 436" fill="none" xmlns="http://www.w3.org/2000/svg">
<path d="M781.2 99.5L717.5 108.1L772.5 273.6L686.8 362.8L693.9 395C693.9 395 715.1 389 728.9 401.3C722.6 410.3 708.1 413.1 708.1 413.1C708.1 413.1 728.3 419 726.1 424.1C723.8 429.2 720.3 432.7 693.6 430.8C666.9 428.8 632 402.8 632 402.8L621.2 388.7L619.6 376.5L535.5 374.9V367L433.3 367.4V389L453 396.5L424.7 410.3L406.2 404L401.9 417.4L414.5 424.5L398.3 435H384.5L368.8 422.6L351.9 366V357.7C351.9 357.7 244.2 357.7 230.4 355.7C216.6 353.7 215.9 336.8 215.9 336.8C215.9 336.8 152.2 327.4 132.2 323.4C112.2 319.4 111.4 302.2 111.4 302.2C111.4 302.2 88.5999 299.1 77.5999 297.1C66.5999 295.1 59.8999 274.1 59.8999 274.1L12.9999 269.7L0.399902 259.5L71.9999 259.9C71.9999 259.9 76.3999 258.7 85.2999 271.6C85.2999 271.6 118.6 268 127.3 267.3C135.9 266.5 138.2 279.7 138.2 279.7L231.3 267.3L241.5 269L403.9 233.6L266.7 106.6L268.7 99.5L225.5 14.6L293.9 28L297.8 14.6L435.4 34.3001L621 185.3L612.4 207.7L656 236L661.1 246.2L650.1 108.2L693.2 59L645.6 38.9001L608.3 18.8L593.4 0.300049L633.5 17.2001L677.5 34.5L776.2 51C776.2 51 788.4 52.6 787.6 57.7C786.7 62.9 781.2 99.5 781.2 99.5Z" fill="#00C8F0"/>
<path d="M230.4 355.8C244.2 357.8 351.9 357.8 351.9 357.8V366.1L368.8 422.7L384.5 435.1H398.3L414.4 424.7L401.8 417.6L406.1 404.2L410.7 395.4L429.5 257.5L403.7 233.6L351.8 357.8L230.4 355.8Z" fill="url(#paint0_linear_8847_25491)"/>
<path d="M413.4 235.9L398.1 375.4L392.2 406.6L386.6 421.6H390.1L391.6 417.2L396.3 412.2V405.4L400 376.6L424.6 240.9L413.4 235.9Z" fill="url(#paint1_linear_8847_25491)"/>
<path d="M403.8 233.5L351.9 357.7V366L353.1 369.9C354.3 364.1 358.6 355.1 372.2 344.4C395.8 325.8 403.8 334 403.8 334L400.8 349.5C400.8 349.5 400.8 349.5 406.2 346.3C410.6 343.7 412.8 342.8 417.3 347.7L429.6 257.6L403.8 233.5Z" fill="url(#paint2_linear_8847_25491)"/>
<path d="M422.8 251.2L412.8 241.9L402.8 333.3C403.5 333.7 403.9 334 403.9 334L401.3 347.2L401.1 349.4C401.5 349.2 402.6 348.5 405.6 346.7L422.8 251.2Z" fill="url(#paint3_linear_8847_25491)"/>
<path opacity="0.8" d="M344.5 357.8C349.2 357.8 351.9 357.8 351.9 357.8L344.4 357.7L344.5 357.8Z" fill="#0289C4"/>
<path d="M456.6 282.6L485.1 309.9L431.3 357.8L437.3 264.7L456.6 282.6Z" fill="#0289C4"/>
<path d="M59.7999 274.2L12.9999 269.7L0.399902 259.5" fill="url(#paint4_linear_8847_25491)"/>
<path d="M215.9 336.9C215.9 336.9 152.2 327.5 132.2 323.5C112.2 319.5 111.4 302.3 111.4 302.3L106.4 283.8L231.3 267.2L241.5 268.9L199.6 278L215.9 336.9Z" fill="url(#paint5_linear_8847_25491)"/>
<path d="M708.1 413.2C708.1 413.2 728.3 419.1 726.1 424.2C723.8 429.3 720.3 432.8 693.6 430.9C666.9 428.9 632 402.9 632 402.9L621.2 388.8L619.6 376.6L655.8 235.9L690.4 401.3L708.1 413.2Z" fill="url(#paint6_linear_8847_25491)"/>
<path d="M686.9 362.9L769.3 277L671.9 252.4L686.9 362.9Z" fill="url(#paint7_linear_8847_25491)"/>
<path d="M781.2 99.5001C781.2 99.5001 786.7 62.9001 787.5 57.8001C780.8 59.0001 760.8 55.2001 732.7 53.9001C704.6 52.5001 697.5 51.0001 700.1 59.0001C702.7 67.1001 717.6 108.1 717.6 108.1L781.2 99.5001Z" fill="url(#paint8_linear_8847_25491)"/>
<path d="M593.3 0.400146L608.2 18.9001L645.5 39.0001L693.2 59.0001C699.1 51.5001 697.3 48.6001 706.4 48.6001C715.5 48.6001 732.9 49.4001 749.1 51.7001C765.2 54.1001 776.6 55.8001 778.6 55.2001C780.6 54.6001 780.4 52.8001 768.8 51.3001C757.2 49.8001 676.6 36.8001 676.6 36.8001C676.6 36.8001 644.4 36.0001 630.6 28.2001C616.8 20.4001 613.3 13.5001 613.3 13.5001L660.3 32.0001L667.3 33.0001L612.8 10.6001L593.3 0.400146Z" fill="#0289C4"/>
<path d="M660.9 246.1L649.9 108.1L693.2 59L653.5 110.5L665.1 241.4L669.6 256.3L669.2 287L660.9 246.1Z" fill="url(#paint9_linear_8847_25491)"/>
<path d="M686.9 362.9L694 395.1C694 395.1 715.2 389.1 729 401.4C722.7 410.4 708.2 413.2 708.2 413.2L687 409.6L686.9 362.9Z" fill="#0289C4"/>
<path d="M698.9 410.6C698.9 410.6 725 408.7 723.1 403.4C721.1 398.1 698.9 410.6 698.9 410.6Z" fill="url(#paint10_linear_8847_25491)"/>
<path d="M682.6 419.3C682.6 419.3 717.1 430.8 718 425.2C718.9 419.6 682.6 419.3 682.6 419.3Z" fill="url(#paint11_linear_8847_25491)"/>
<path d="M684.1 423L669.2 287L669.4 271.7L684.1 407.9V423Z" fill="url(#paint12_linear_8847_25491)"/>
<path d="M612.2 207.6L655.8 235.9L619.6 376.6L535.5 375.1V367.2L545.3 370.3L612.2 207.6Z" fill="url(#paint13_linear_8847_25491)"/>
<path d="M568.7 350.3C579.3 336.9 614.3 255.9 616.3 245.3C617.7 238 609.5 230.7 604.3 226.8L545.4 370.3L556.4 368.1C556.3 368.2 558.1 363.7 568.7 350.3Z" fill="#0289C4"/>
<path d="M199.5 278L403.8 233.5L351.9 357.7C351.9 357.7 244.2 357.7 230.4 355.7C216.6 353.7 215.9 336.8 215.9 336.8L199.5 278Z" fill="url(#paint14_linear_8847_25491)"/>
<path d="M111.3 302.3C111.3 302.3 88.4998 299.2 77.4998 297.2C66.4998 295.2 59.7998 274.2 59.7998 274.2L85.2998 271.6C85.2998 271.6 118.6 268 127.3 267.3C135.9 266.5 138.2 279.7 138.2 279.7L106.4 283.9L111.3 302.3Z" fill="url(#paint15_linear_8847_25491)"/>
<path d="M433.3 367.6V389.2L452.9 396.7L424.6 410.4L406.2 404.2L410.7 395.7L429.6 257.4L437.3 264.7L431.3 357.8L424.6 363.7L433.3 367.6Z" fill="url(#paint16_linear_8847_25491)"/>
<path d="M535.5 367.2L433.3 367.6L424.6 363.7L485.1 309.9L535.5 358.1L545.3 370.3L535.5 367.2Z" fill="url(#paint17_linear_8847_25491)"/>
<path d="M535.5 367.2V375.1L619.6 376.6L620.8 370.3L535.5 367.2Z" fill="url(#paint18_linear_8847_25491)"/>
<path d="M620.8 185.2L435.3 34.2L297.7 14.5L293.7 27.9L225.3 14.5L268.6 99.5L266.6 106.5L403.8 233.5L456.6 282.6L535.5 358.1L545.3 370.3L604.3 226.8L612.2 207.6L620.8 185.2Z" fill="url(#paint19_linear_8847_25491)"/>
<path d="M403.8 233.5L266.6 106.5L268.6 99.5L285.9 56.2L620.8 185.2L456.6 282.6L403.8 233.5Z" fill="url(#paint20_linear_8847_25491)"/>
<path d="M293.7 27.9L225.3 14.5L284.8 59L293.7 27.9Z" fill="#0289C4"/>
<path d="M225.3 14.5L268.6 99.5L284.8 59L225.3 14.5Z" fill="#006F96"/>
<path d="M620.8 185.2L435.3 34.2L297.7 14.5L285.9 56.2L620.8 185.2Z" fill="#00C8F0"/>
<path d="M398.3 435H384.5L368.8 422.6" fill="#0289C4"/>
<defs>
<linearGradient id="paint0_linear_8847_25491" x1="338.925" y1="376.923" x2="363.3" y2="357.266" gradientUnits="userSpaceOnUse">
<stop stop-color="#0289C4"/>
<stop offset="0.0447882" stop-color="#028FC8"/>
<stop offset="0.2606" stop-color="#01A8DA"/>
<stop offset="0.4858" stop-color="#00BAE6"/>
<stop offset="0.7247" stop-color="#00C5EE"/>
<stop offset="1" stop-color="#00C8F0"/>
</linearGradient>
<linearGradient id="paint1_linear_8847_25491" x1="417.824" y1="246.244" x2="391.876" y2="419.33" gradientUnits="userSpaceOnUse">
<stop stop-color="#0289C4"/>
<stop offset="0.227" stop-color="#01A9DA"/>
<stop offset="0.4033" stop-color="#00BDE8"/>
<stop offset="1" stop-color="#0289C4"/>
</linearGradient>
<linearGradient id="paint2_linear_8847_25491" x1="390.75" y1="425.778" x2="390.75" y2="72.3509" gradientUnits="userSpaceOnUse">
<stop offset="0.1598" stop-color="#0289C4"/>
<stop offset="0.9752" stop-color="#00095C"/>
</linearGradient>
<linearGradient id="paint3_linear_8847_25491" x1="400.969" y1="295.65" x2="422.779" y2="295.65" gradientUnits="userSpaceOnUse">
<stop offset="0.1598" stop-color="#0289C4"/>
<stop offset="0.9752" stop-color="#00095C"/>
</linearGradient>
<linearGradient id="paint4_linear_8847_25491" x1="0.399902" y1="266.85" x2="59.7999" y2="266.85" gradientUnits="userSpaceOnUse">
<stop stop-color="#00BDE8"/>
<stop offset="0.4371" stop-color="#01A9DA"/>
<stop offset="1" stop-color="#0289C4"/>
</linearGradient>
<linearGradient id="paint5_linear_8847_25491" x1="106.4" y1="302.05" x2="241.5" y2="302.05" gradientUnits="userSpaceOnUse">
<stop stop-color="#00BDE8"/>
<stop offset="0.4371" stop-color="#01A9DA"/>
<stop offset="1" stop-color="#0289C4"/>
</linearGradient>
<linearGradient id="paint6_linear_8847_25491" x1="641.871" y1="408.535" x2="662.315" y2="375.903" gradientUnits="userSpaceOnUse">
<stop stop-color="#0289C4"/>
<stop offset="0.0447882" stop-color="#028FC8"/>
<stop offset="0.2606" stop-color="#01A8DA"/>
<stop offset="0.4858" stop-color="#00BAE6"/>
<stop offset="0.7247" stop-color="#00C5EE"/>
<stop offset="1" stop-color="#00C8F0"/>
</linearGradient>
<linearGradient id="paint7_linear_8847_25491" x1="727.413" y1="319.193" x2="692.816" y2="281.057" gradientUnits="userSpaceOnUse">
<stop stop-color="#0289C4"/>
<stop offset="0.5629" stop-color="#01A9DA"/>
<stop offset="1" stop-color="#00BDE8"/>
</linearGradient>
<linearGradient id="paint8_linear_8847_25491" x1="742.347" y1="101.936" x2="745.492" y2="-15.2242" gradientUnits="userSpaceOnUse">
<stop stop-color="#0289C4"/>
<stop offset="0.0447882" stop-color="#028FC8"/>
<stop offset="0.2606" stop-color="#01A8DA"/>
<stop offset="0.4858" stop-color="#00BAE6"/>
<stop offset="0.7247" stop-color="#00C5EE"/>
<stop offset="1" stop-color="#00C8F0"/>
</linearGradient>
<linearGradient id="paint9_linear_8847_25491" x1="673.012" y1="291.896" x2="671.439" y2="67.7983" gradientUnits="userSpaceOnUse">
<stop stop-color="#0289C4"/>
<stop offset="0.0447882" stop-color="#028FC8"/>
<stop offset="0.2606" stop-color="#01A8DA"/>
<stop offset="0.4858" stop-color="#00BAE6"/>
<stop offset="0.7247" stop-color="#00C5EE"/>
<stop offset="1" stop-color="#00C8F0"/>
</linearGradient>
<linearGradient id="paint10_linear_8847_25491" x1="709.729" y1="403.634" x2="712.728" y2="411.576" gradientUnits="userSpaceOnUse">
<stop offset="0.1598" stop-color="#0289C4"/>
<stop offset="0.6257" stop-color="#04769E"/>
<stop offset="1" stop-color="#0289C4"/>
</linearGradient>
<linearGradient id="paint11_linear_8847_25491" x1="700.878" y1="418.394" x2="699.658" y2="426.528" gradientUnits="userSpaceOnUse">
<stop stop-color="#0289C4"/>
<stop offset="0.5035" stop-color="#00BDE8"/>
<stop offset="1" stop-color="#028DC7"/>
</linearGradient>
<linearGradient id="paint12_linear_8847_25491" x1="677.203" y1="426.334" x2="676.158" y2="277.377" gradientUnits="userSpaceOnUse">
<stop stop-color="#0289C4"/>
<stop offset="0.0447882" stop-color="#028FC8"/>
<stop offset="0.2606" stop-color="#01A8DA"/>
<stop offset="0.4858" stop-color="#00BAE6"/>
<stop offset="0.7247" stop-color="#00C5EE"/>
<stop offset="1" stop-color="#00C8F0"/>
</linearGradient>
<linearGradient id="paint13_linear_8847_25491" x1="535.5" y1="292.1" x2="655.8" y2="292.1" gradientUnits="userSpaceOnUse">
<stop stop-color="#0289C4"/>
<stop offset="0.5629" stop-color="#01A9DA"/>
<stop offset="1" stop-color="#00BDE8"/>
</linearGradient>
<linearGradient id="paint14_linear_8847_25491" x1="123.709" y1="207.268" x2="402.062" y2="333.47" gradientUnits="userSpaceOnUse">
<stop stop-color="#00BDE8"/>
<stop offset="0.2829" stop-color="#01A9DA"/>
<stop offset="0.6472" stop-color="#0289C4"/>
<stop offset="0.6495" stop-color="#0288C3"/>
<stop offset="0.705" stop-color="#0775B4"/>
<stop offset="0.7692" stop-color="#0B67A8"/>
<stop offset="0.8501" stop-color="#0D5FA2"/>
<stop offset="1" stop-color="#0E5DA0"/>
</linearGradient>
<linearGradient id="paint15_linear_8847_25491" x1="59.7998" y1="284.783" x2="138.2" y2="284.783" gradientUnits="userSpaceOnUse">
<stop stop-color="#00BDE8"/>
<stop offset="0.4371" stop-color="#01A9DA"/>
<stop offset="1" stop-color="#0289C4"/>
</linearGradient>
<linearGradient id="paint16_linear_8847_25491" x1="447.424" y1="221.453" x2="419.511" y2="500.986" gradientUnits="userSpaceOnUse">
<stop offset="0.1598" stop-color="#0289C4"/>
<stop offset="0.9752" stop-color="#00095C"/>
</linearGradient>
<linearGradient id="paint17_linear_8847_25491" x1="337.774" y1="293.778" x2="550.078" y2="372.409" gradientUnits="userSpaceOnUse">
<stop offset="0.1598" stop-color="#0289C4"/>
<stop offset="0.5913" stop-color="#00518F"/>
<stop offset="1" stop-color="#0289C4"/>
</linearGradient>
<linearGradient id="paint18_linear_8847_25491" x1="580.665" y1="349.178" x2="573.883" y2="401.959" gradientUnits="userSpaceOnUse">
<stop offset="0.1598" stop-color="#0289C4"/>
<stop offset="0.9752" stop-color="#00095C"/>
</linearGradient>
<linearGradient id="paint19_linear_8847_25491" x1="423.05" y1="70.1696" x2="423.05" y2="357.255" gradientUnits="userSpaceOnUse">
<stop stop-color="#0289C4"/>
<stop offset="0.5629" stop-color="#01A9DA"/>
<stop offset="1" stop-color="#00BDE8"/>
</linearGradient>
<linearGradient id="paint20_linear_8847_25491" x1="443.7" y1="91.6059" x2="443.7" y2="274.253" gradientUnits="userSpaceOnUse">
<stop stop-color="#0289C4"/>
<stop offset="0.5629" stop-color="#01A9DA"/>
<stop offset="1" stop-color="#00BDE8"/>
</linearGradient>
</defs>
</svg>
