<svg width="800" height="480" viewBox="0 0 800 480" fill="none" xmlns="http://www.w3.org/2000/svg">
<path d="M729.87 412.12L796.41 382.45V380.6L729.87 382.25V412.12Z" fill="url(#paint0_linear_8847_25579)"/>
<path d="M729.87 405.63V384.51L649.12 391.31L640.47 426.74L654.47 424.48L729.87 405.63Z" fill="url(#paint1_linear_8847_25579)"/>
<path d="M649.97 387.84L639.97 428.78L536.23 423.04L565.48 367.21L643.56 384.51L649.97 387.84Z" fill="url(#paint2_linear_8847_25579)"/>
<path d="M536.23 423.04L567.05 364.21L511.92 321.89L459.59 380.6L536.23 423.04Z" fill="url(#paint3_linear_8847_25579)"/>
<path d="M511.92 321.89L459.59 380.6L414.89 429.83L428.69 348.87L511.92 321.89Z" fill="url(#paint4_linear_8847_25579)"/>
<path d="M414.89 429.83L428.69 348.87L334.34 378.13L384.96 421.18L412.97 445.02L414.89 429.83Z" fill="url(#paint5_linear_8847_25579)"/>
<path d="M533.75 175.42C534.37 176.04 593.49 160.59 593.49 160.59L647.46 157.09L533.75 175.42Z" fill="#392518"/>
<path d="M412.97 445.02L384.95 421.19L375.12 443.23L379.45 457.24L369.36 453.33L361.12 458.69C361.12 458.69 363.39 464.05 363.39 464.66C363.39 465.27 381.52 472.28 381.52 472.28L389.97 471.04L412.97 445.02Z" fill="#906C48"/>
<path d="M375.13 443.22L384.96 421.18L412.97 445.02H407.27L388.42 435.09L385.64 442.5L381.52 441.11L377.28 450.2L375.13 443.22Z" fill="url(#paint6_linear_8847_25579)"/>
<path d="M379.15 463.98L378.53 465.37H369.72L363.08 460.43L366.63 456.1H373.28L372.04 457.49L366.79 457.34L364.16 460.73L369.88 464.29L379.15 463.98Z" fill="url(#paint7_linear_8847_25579)"/>
<path d="M312.92 143.69L316.01 129.68L307.15 109.08L281.6 76.12L272.95 72.62L308.18 43.37V36.36L298.5 35.95L286.55 43.78L283.05 47.08L255.24 61.7L252.97 61.91L252.56 51.4L269.86 24.62L273.57 15.97L276.25 9.37998L273.98 7.72998L265.74 14.32L251.12 31.01L251.53 23.18L247.61 21.12L242.88 40.48L227.84 53.67L219.28 55.25L218.15 60.88L188.9 69.53L166.45 72.21H159.24L155.12 85.39L159.03 94.46L175.72 102.29L158 109.5L166.24 113.62L204.15 117.53L211.56 131.33L249.67 139.57L294.79 149.56L299.58 151.42L311.78 154.66L310.39 151.73L313.95 152.04L312.92 143.69Z" fill="url(#paint8_linear_8847_25579)"/>
<path d="M272.95 11.23L265.12 17L239.17 51.96L231.96 53.67L226.63 56.06L226.19 60.26L227.73 61.29L228.66 57.48L231.96 54.85L239.94 53L265.59 18.08L272.95 11.23Z" fill="url(#paint9_linear_8847_25579)"/>
<path d="M158 109.5L175.72 102.29L206 113.82L163.56 111.14L158 109.5Z" fill="url(#paint10_linear_8847_25579)"/>
<path d="M310.39 151.73L313.95 152.04L310.39 146.16L297.67 141.63L246.38 126.7L284.28 141.74L307.15 146.58L310.39 151.73Z" fill="url(#paint11_linear_8847_25579)"/>
<path d="M230.21 57.7899L229.28 61.2899L236.85 63.1999L239.48 55.9299L230.21 57.7899Z" fill="#392518"/>
<path d="M251.12 31.0101L251.53 23.1801L247.61 21.1201L242.88 40.4801L231.96 74.2701H249.26L253.18 71.3801L251.12 31.0101Z" fill="url(#paint12_linear_8847_25579)"/>
<path d="M249.67 139.57L234.02 171.92L303.03 351.04L309.21 360.82L314.87 189.12L294.79 149.56L249.67 139.57Z" fill="url(#paint13_linear_8847_25579)"/>
<path d="M323.68 375.86L327.34 380.19L334.34 378.13L428.69 348.87L511.92 321.89L515.83 319L449.6 265.58L323.68 375.86Z" fill="url(#paint14_linear_8847_25579)"/>
<path d="M397.41 217.87L395.23 221.72L515.83 319L527.37 317.15L397.41 217.87Z" fill="url(#paint15_linear_8847_25579)"/>
<path d="M408.74 202.2L411.39 199.31L427.87 186.95L589.38 202.2L648.91 209.41L567.05 287.07L560.54 283.36L450.22 221.72L408.74 202.2Z" fill="#AD8550"/>
<path d="M550.48 295.21L560.54 283.36L450.22 221.72L408.74 202.2L409.58 209.82L445.74 227.28L550.48 295.21Z" fill="url(#paint16_linear_8847_25579)"/>
<path d="M427.87 186.95L533.75 175.42L647.47 157.08L589.38 202.2L427.87 186.95Z" fill="#907450"/>
<path d="M550.48 295.21L445.74 227.28L409.58 209.82L408.74 202.2L402.32 209.2L397.41 217.87L527.37 317.15L533.96 314.68L550.48 295.21Z" fill="#AD8550"/>
<path d="M387.49 235.36L395.23 221.72L449.6 265.58L323.68 375.86L319.51 370.92L387.49 235.36Z" fill="url(#paint17_linear_8847_25579)"/>
<path d="M312.92 143.69L326.93 200.34V207.76L387.49 235.36L319.51 370.92L317.66 371.33L314.2 367.03L317.04 298.79L319.51 199.31L314.87 189.12V183.09L299.58 151.42L311.78 154.66L310.39 151.73L313.95 152.04L312.92 143.69Z" fill="url(#paint18_linear_8847_25579)"/>
<path d="M314.2 367.03L317.04 298.79L319.51 199.31L314.87 189.12V183.09L299.58 151.42L294.79 149.56L314.87 189.12L309.21 360.82L314.2 367.03Z" fill="url(#paint19_linear_8847_25579)"/>
<path d="M326.93 207.76V200.34L312.92 143.69L313.95 152.04L310.39 151.73L311.78 154.66L307.15 153.43L326.93 207.76Z" fill="#AD8550"/>
<path d="M155.12 85.39L159.03 94.46L163.56 77.77L161.5 75.3L155.12 85.39Z" fill="url(#paint20_linear_8847_25579)"/>
<path d="M166.55 75.2999V82.5099L220.78 78.0299V75.2999L230.98 73.5499L234.02 64.2799H227.27L224.18 60.8799L225.73 55.9299L221.86 56.7099L221.71 60.2599L223.72 68.4499L220.47 61.3399L190.03 70.6099L166.55 75.2999Z" fill="url(#paint21_linear_8847_25579)"/>
<path d="M166.55 85.75L220.63 81.2L219.39 115.73L162.07 94.46L166.55 85.75Z" fill="#B89567"/>
<path d="M249.67 139.57L294.79 149.56L262.03 135.43L259.88 139.57L214.37 129.37L214.69 131.44L249.67 139.57Z" fill="url(#paint22_linear_8847_25579)"/>
<path d="M214.37 118.35L253.18 135.66L214.37 127.93V118.35Z" fill="url(#paint23_linear_8847_25579)"/>
<path d="M182 112.31L210.71 115.9L212.9 127.78L208.53 117.45L182 112.31Z" fill="url(#paint24_linear_8847_25579)"/>
<path d="M305.91 39.25V41.72C305.91 41.72 298.18 46.51 298.03 46.97C297.88 47.43 276.54 69.63 276.54 69.63L272.95 72.61L279.34 61.33L296.18 46.03L305.91 39.25Z" fill="url(#paint25_linear_8847_25579)"/>
<path d="M249.06 95.8L227.73 118.35L228.35 120.98L298.34 130.87L240.56 113.33L263.73 108.93L249.06 95.8Z" fill="url(#paint26_linear_8847_25579)"/>
<path d="M263.73 108.93L249.06 95.8H253.18L281.5 122.99L298.34 130.87L240.56 113.33L263.73 108.93Z" fill="#B89567"/>
<path d="M263.04 79.1101H278.62L280.17 77.9801L266.57 74.2701L267.19 72.6201L281.2 78.1801L280.17 81.1901L275.43 82.5001L269.46 80.0301L257.66 85.5401L263.04 79.1101Z" fill="url(#paint27_linear_8847_25579)"/>
<path d="M276.4 63.2L268.68 74.2699L225.57 118.35L219.39 115.73L220.63 81.1999H223.1L225.26 91.62L243.18 84.8799L255.85 72L276.4 63.2Z" fill="url(#paint28_radial_8847_25579)"/>
<path d="M304.26 37.6001L298.34 38.6301L287.17 46.6601L284.69 49.3401L261.83 63.2001L252.97 61.9101L253 63.2001L253.18 71.3801L255.85 72.0001L276.4 63.2001L257.71 69.2201L252.97 67.3501L254.58 64.3801L263.04 64.1701L284.69 49.3401L287.17 46.6601L298.73 39.2501L304.26 37.6001Z" fill="url(#paint29_linear_8847_25579)"/>
<path d="M281.19 81.2L311.47 127.78L312.92 137.72L314.87 129.37L307.15 111.35L281.19 81.2Z" fill="url(#paint30_linear_8847_25579)"/>
<defs>
<linearGradient id="paint0_linear_8847_25579" x1="729.872" y1="396.358" x2="796.411" y2="396.358" gradientUnits="userSpaceOnUse">
<stop stop-color="#906C48"/>
<stop offset="0.483" stop-color="#6D5237"/>
</linearGradient>
<linearGradient id="paint1_linear_8847_25579" x1="653.585" y1="398.929" x2="643.388" y2="396.766" gradientUnits="userSpaceOnUse">
<stop stop-color="#906C48"/>
<stop offset="1" stop-color="#483624"/>
</linearGradient>
<linearGradient id="paint2_linear_8847_25579" x1="561.503" y1="390.871" x2="547.907" y2="384.69" gradientUnits="userSpaceOnUse">
<stop stop-color="#906C48"/>
<stop offset="1" stop-color="#483624"/>
</linearGradient>
<linearGradient id="paint3_linear_8847_25579" x1="503.513" y1="364.449" x2="470.758" y2="337.874" gradientUnits="userSpaceOnUse">
<stop stop-color="#906C48"/>
<stop offset="1" stop-color="#483624"/>
</linearGradient>
<linearGradient id="paint4_linear_8847_25579" x1="414.89" y1="375.861" x2="511.918" y2="375.861" gradientUnits="userSpaceOnUse">
<stop stop-color="#906C48"/>
<stop offset="1" stop-color="#483624"/>
</linearGradient>
<linearGradient id="paint5_linear_8847_25579" x1="375.032" y1="408.881" x2="384.92" y2="389.516" gradientUnits="userSpaceOnUse">
<stop stop-color="#906C48"/>
<stop offset="1" stop-color="#483624"/>
</linearGradient>
<linearGradient id="paint6_linear_8847_25579" x1="399.425" y1="425.317" x2="394.069" y2="444.063" gradientUnits="userSpaceOnUse">
<stop stop-color="#906C48"/>
<stop offset="1" stop-color="#483624"/>
</linearGradient>
<linearGradient id="paint7_linear_8847_25579" x1="363.079" y1="460.735" x2="379.148" y2="460.735" gradientUnits="userSpaceOnUse">
<stop stop-color="#906C48"/>
<stop offset="1" stop-color="#483624"/>
</linearGradient>
<linearGradient id="paint8_linear_8847_25579" x1="155.117" y1="81.196" x2="316.007" y2="81.196" gradientUnits="userSpaceOnUse">
<stop offset="0.627" stop-color="#AD8550"/>
<stop offset="0.888" stop-color="#AE8652"/>
<stop offset="0.982" stop-color="#B18B59"/>
<stop offset="1" stop-color="#B28C5B"/>
</linearGradient>
<linearGradient id="paint9_linear_8847_25579" x1="220.756" y1="18.314" x2="277.304" y2="52.614" gradientUnits="userSpaceOnUse">
<stop stop-color="#AD8550"/>
<stop offset="1" stop-color="#564228"/>
</linearGradient>
<linearGradient id="paint10_linear_8847_25579" x1="117.497" y1="106.459" x2="193.307" y2="108.107" gradientUnits="userSpaceOnUse">
<stop stop-color="#AD8550"/>
<stop offset="1" stop-color="#564228"/>
</linearGradient>
<linearGradient id="paint11_linear_8847_25579" x1="246.377" y1="139.366" x2="313.947" y2="139.366" gradientUnits="userSpaceOnUse">
<stop stop-color="#AD8550"/>
<stop offset="1" stop-color="#564228"/>
</linearGradient>
<linearGradient id="paint12_linear_8847_25579" x1="245.377" y1="12.8711" x2="241.668" y2="91.9771" gradientUnits="userSpaceOnUse">
<stop stop-color="#AD8550"/>
<stop offset="0.665" stop-color="#564228"/>
<stop offset="1" stop-color="#AD8550"/>
</linearGradient>
<linearGradient id="paint13_linear_8847_25579" x1="313.046" y1="251.026" x2="200.258" y2="248.245" gradientUnits="userSpaceOnUse">
<stop stop-color="#AD8550"/>
<stop offset="1" stop-color="#564228"/>
</linearGradient>
<linearGradient id="paint14_linear_8847_25579" x1="400.953" y1="325.594" x2="393.382" y2="316.788" gradientUnits="userSpaceOnUse">
<stop offset="0.627" stop-color="#AD8550"/>
<stop offset="0.831" stop-color="#AB844F"/>
<stop offset="0.904" stop-color="#A47E4C"/>
<stop offset="0.956" stop-color="#997547"/>
<stop offset="0.998" stop-color="#88693F"/>
<stop offset="1" stop-color="#87683F"/>
</linearGradient>
<linearGradient id="paint15_linear_8847_25579" x1="458.351" y1="272.445" x2="459.741" y2="270.746" gradientUnits="userSpaceOnUse">
<stop stop-color="#AD8550"/>
<stop offset="1" stop-color="#564228"/>
</linearGradient>
<linearGradient id="paint16_linear_8847_25579" x1="481.258" y1="248.256" x2="484.502" y2="243.003" gradientUnits="userSpaceOnUse">
<stop stop-color="#AD8550"/>
<stop offset="1" stop-color="#564228"/>
</linearGradient>
<linearGradient id="paint17_linear_8847_25579" x1="374.03" y1="306.587" x2="356.313" y2="297.111" gradientUnits="userSpaceOnUse">
<stop offset="0.627" stop-color="#AD8550"/>
<stop offset="0.888" stop-color="#AE8652"/>
<stop offset="0.982" stop-color="#B18B59"/>
<stop offset="1" stop-color="#B28C5B"/>
</linearGradient>
<linearGradient id="paint18_linear_8847_25579" x1="327.082" y1="257.964" x2="319.048" y2="257.655" gradientUnits="userSpaceOnUse">
<stop stop-color="#AD8550"/>
<stop offset="1" stop-color="#564228"/>
</linearGradient>
<linearGradient id="paint19_linear_8847_25579" x1="326.53" y1="259.298" x2="312.934" y2="258.679" gradientUnits="userSpaceOnUse">
<stop offset="0.627" stop-color="#AD8550"/>
<stop offset="0.831" stop-color="#AB844F"/>
<stop offset="0.904" stop-color="#A47E4C"/>
<stop offset="0.956" stop-color="#997547"/>
<stop offset="0.998" stop-color="#88693F"/>
<stop offset="1" stop-color="#87683F"/>
</linearGradient>
<linearGradient id="paint20_linear_8847_25579" x1="155.117" y1="84.878" x2="163.563" y2="84.878" gradientUnits="userSpaceOnUse">
<stop stop-color="#AD8550"/>
<stop offset="1" stop-color="#564228"/>
</linearGradient>
<linearGradient id="paint21_linear_8847_25579" x1="138.087" y1="119.228" x2="231.408" y2="50.3189" gradientUnits="userSpaceOnUse">
<stop stop-color="#AD8550"/>
<stop offset="1" stop-color="#564228"/>
</linearGradient>
<linearGradient id="paint22_linear_8847_25579" x1="255.942" y1="115.618" x2="253.79" y2="153.316" gradientUnits="userSpaceOnUse">
<stop stop-color="#AD8550"/>
<stop offset="1" stop-color="#564228"/>
</linearGradient>
<linearGradient id="paint23_linear_8847_25579" x1="279.289" y1="63.2291" x2="212.543" y2="156.756" gradientUnits="userSpaceOnUse">
<stop stop-color="#AD8550"/>
<stop offset="1" stop-color="#564228"/>
</linearGradient>
<linearGradient id="paint24_linear_8847_25579" x1="243.361" y1="87.2781" x2="126.088" y2="170.974" gradientUnits="userSpaceOnUse">
<stop stop-color="#AD8550"/>
<stop offset="1" stop-color="#564228"/>
</linearGradient>
<linearGradient id="paint25_linear_8847_25579" x1="272.952" y1="55.934" x2="305.913" y2="55.934" gradientUnits="userSpaceOnUse">
<stop stop-color="#AD8550"/>
<stop offset="1" stop-color="#564228"/>
</linearGradient>
<linearGradient id="paint26_linear_8847_25579" x1="267.356" y1="128.049" x2="238.309" y2="108.118" gradientUnits="userSpaceOnUse">
<stop stop-color="#AD8550"/>
<stop offset="1" stop-color="#564228"/>
</linearGradient>
<linearGradient id="paint27_linear_8847_25579" x1="257.647" y1="79.0851" x2="281.192" y2="79.0851" gradientUnits="userSpaceOnUse">
<stop stop-color="#AD8550"/>
<stop offset="1" stop-color="#564228"/>
</linearGradient>
<radialGradient id="paint28_radial_8847_25579" cx="0" cy="0" r="1" gradientUnits="userSpaceOnUse" gradientTransform="translate(230.309 101.049) scale(39.767 39.767)">
<stop stop-color="#564228"/>
<stop offset="1" stop-color="#AD8550"/>
</radialGradient>
<linearGradient id="paint29_linear_8847_25579" x1="223.007" y1="20.6991" x2="331.039" y2="86.2271" gradientUnits="userSpaceOnUse">
<stop stop-color="#AD8550"/>
<stop offset="1" stop-color="#564228"/>
</linearGradient>
<linearGradient id="paint30_linear_8847_25579" x1="281.192" y1="109.457" x2="314.874" y2="109.457" gradientUnits="userSpaceOnUse">
<stop stop-color="#AD8550"/>
<stop offset="1" stop-color="#564228"/>
</linearGradient>
</defs>
</svg>
