<svg width="1024" height="480" viewBox="0 0 1024 480" fill="none" xmlns="http://www.w3.org/2000/svg">
<path d="M884.86 121.32L899.42 112.21L922.28 111.46L906.07 127.34L884.86 121.32Z" fill="url(#paint0_linear_8847_25439)"/>
<path d="M960.93 139.06L962.97 129.61L966.05 129.95L967.72 145.93L960.93 139.06Z" fill="url(#paint1_linear_8847_25439)"/>
<path d="M943.31 163.99L953.31 175.8L955.8 183.45L963.45 198.48L963.71 207.35L956.3 207.47L938.86 189.19L943.31 163.99Z" fill="url(#paint2_linear_8847_25439)"/>
<path d="M744.03 399.55L875.61 261.44L870.22 177.92L812.66 169.45L796.52 237.42L773.52 275.44L774.47 361.73L741.29 395.88L744.03 399.55Z" fill="url(#paint3_linear_8847_25439)"/>
<path d="M724.59 416.76L757.52 415.61L744.03 399.55L741.29 395.88L723.52 414.62L724.59 416.76Z" fill="url(#paint4_linear_8847_25439)"/>
<path d="M565.27 253.26L537.54 196.32L590.23 213.05L668.02 246.44L631.31 248.56L572.38 265.62L565.27 253.26Z" fill="#F04163"/>
<path d="M572.38 265.62L631.31 248.56L668.02 246.44L659.27 249.83L624.11 254.75L576.84 267.13L576.42 270.39L570.92 270.97L561.22 253.44L565.27 253.26L572.38 265.62Z" fill="#B10023"/>
<path d="M576.84 267.13L624.11 254.75L659.27 249.83L665.29 263.79L668.15 279.07L626.17 286.44L588.1 294.89L576.84 267.13Z" fill="#F04163"/>
<path d="M588.1 294.89L626.17 286.44L668.15 279.07L669.37 282.65L626.63 288.37L589.65 296.04L589.91 298.49L588.49 298.64L576.42 270.39L576.84 267.13L588.1 294.89Z" fill="#B10023"/>
<path d="M589.65 296.04L626.63 288.37L669.37 282.65L672.55 312.99L602.37 334.44L589.65 296.04Z" fill="#F04163"/>
<path d="M602.37 334.44L672.55 312.99L672.89 316.17L602.37 334.44Z" fill="#B90030"/>
<path d="M602.37 334.44L672.89 316.17L680.34 364.68L602.37 334.44Z" fill="#F04163"/>
<path d="M400.04 298.78L393.35 288.11L400.34 282.43L451.44 258.27L420.84 276.81L405.02 290.01L400.04 298.78Z" fill="url(#paint5_linear_8847_25439)"/>
<path d="M268.72 334.81L56.28 392.47L208.62 408.21L243.7 382.44L298.22 341.11L268.72 334.81Z" fill="url(#paint6_linear_8847_25439)"/>
<path d="M268.72 334.81L261.75 331.09L343.84 308.14L400.04 298.78L400.55 303.67L327.35 319.76L268.72 334.81Z" fill="url(#paint7_linear_8847_25439)"/>
<path d="M268.72 334.81L327.35 319.76L400.55 303.67L417.17 356.01L298.22 341.11L268.72 334.81Z" fill="url(#paint8_linear_8847_25439)"/>
<path d="M298.22 341.11L417.17 356.01L422.71 368.62L243.7 382.44L298.22 341.11Z" fill="url(#paint9_linear_8847_25439)"/>
<path d="M366.17 349.62L417.17 356.01L422.71 368.62L364.13 373.14" fill="url(#paint10_linear_8847_25439)"/>
<path d="M425.06 374.96L480.96 348.33L529.13 341.3L451.44 258.27L420.84 276.81L405.02 290.01L400.04 298.78L400.55 303.67L417.17 356.01L422.71 368.62L425.06 374.96Z" fill="url(#paint11_linear_8847_25439)"/>
<path d="M425.06 374.96L480.96 348.33L529.13 341.3L523.83 335.63L479.39 346.27L424.2 372.65L425.06 374.96Z" fill="url(#paint12_linear_8847_25439)"/>
<path d="M561.22 253.44L451.44 258.27L529.13 341.3L612.55 416.3L627.3 389.7L643.34 368.56L644.98 350.97L602.37 334.44L590.45 298.43L588.49 298.64L576.42 270.39L570.92 270.97L561.22 253.44Z" fill="url(#paint13_linear_8847_25439)"/>
<path d="M451.44 258.27L529.13 341.3L612.55 416.3L451.44 258.27Z" fill="url(#paint14_linear_8847_25439)"/>
<path d="M590.45 298.43L602.37 334.44L644.98 350.97L601.28 334.56L589.58 298.52L590.45 298.43Z" fill="url(#paint15_linear_8847_25439)"/>
<path d="M627.3 389.7L612.55 416.3L650.2 418.29L632.9 398.01L627.3 389.7Z" fill="url(#paint16_linear_8847_25439)"/>
<path d="M680.34 364.68L602.37 334.44L680.34 364.68Z" fill="#F04163"/>
<path d="M680.34 364.68L649.4 378.48L632.9 398.01L627.3 389.7L643.34 368.56L644.98 350.97L680.34 364.68Z" fill="url(#paint17_linear_8847_25439)"/>
<path d="M723.52 414.62L741.29 395.88L774.47 361.73L773.52 275.44L796.52 237.42L812.66 169.45L801.94 163.65L789.59 190.66L789.45 202.22L766.46 253.1L714.21 396.08L723.52 414.62Z" fill="url(#paint18_linear_8847_25439)"/>
<path d="M702.42 372.59L714.21 396.08L766.46 253.1L710.39 252.39L678.1 256.51L720.6 304.73L695.64 346.59L702.42 372.59Z" fill="#F04163"/>
<path d="M695.64 346.59L702.42 372.59L680.34 364.68L695.64 346.59Z" fill="url(#paint19_linear_8847_25439)"/>
<path d="M680.34 364.68L695.64 346.59L720.6 304.73L678.1 256.51L665.29 263.79L668.15 279.07L669.37 282.65L672.55 312.99L672.89 316.17L680.34 364.68Z" fill="url(#paint20_linear_8847_25439)"/>
<path d="M678.1 256.51L665.29 263.79L659.27 249.83L668.02 246.44L678.1 256.51Z" fill="url(#paint21_linear_8847_25439)"/>
<path d="M590.23 213.05L585.08 191.33L585.02 185.9L583.3 179.16L560.41 134.57L667.62 187.13L710.39 252.39L678.1 256.51L668.02 246.44L590.23 213.05Z" fill="url(#paint22_linear_8847_25439)"/>
<path d="M585.08 191.33L585.02 185.9L646.17 204.55L585.08 191.33Z" fill="url(#paint23_linear_8847_25439)"/>
<path d="M583.3 179.16L560.41 134.57L619.01 191.57" fill="url(#paint24_linear_8847_25439)"/>
<path d="M926.71 160.12L943.31 163.99L938.86 189.19L870.22 177.92L926.71 160.12Z" fill="url(#paint25_linear_8847_25439)"/>
<path d="M862.51 176.75L889.09 130.27L844.94 107.37L804.04 83.9599L798.53 82.8899L796.5 86.0699L831.5 136.8L857.36 176.03L862.51 176.75Z" fill="url(#paint26_linear_8847_25439)"/>
<path d="M857.36 176.03L831.5 136.8L796.5 86.0699L798.53 82.8899L857.36 176.03Z" fill="url(#paint27_linear_8847_25439)"/>
<path d="M893.82 141.64L866.02 144.31L869.55 177.99L893.82 141.64Z" fill="url(#paint28_linear_8847_25439)"/>
<path d="M870.22 177.92L926.71 160.12L967.72 145.93L960.93 139.06L906.07 127.34L884.86 121.32L889.09 130.27L862.51 176.75L870.22 177.92Z" fill="url(#paint29_linear_8847_25439)"/>
<path d="M866.02 144.31L883.03 127.94L900.36 134.03L893.82 141.64L866.02 144.31Z" fill="url(#paint30_linear_8847_25439)"/>
<path d="M866.02 144.31L893.82 141.64L900.36 134.03L894.02 143.48L866.02 144.31Z" fill="url(#paint31_linear_8847_25439)"/>
<path d="M801.94 163.65L813.96 156.12L814.56 142.54L831.5 136.8L857.36 176.03L812.66 169.45L801.94 163.65Z" fill="url(#paint32_linear_8847_25439)"/>
<path d="M884.86 121.32L880.84 102.28L818 62.71L811.82 61.71L806.06 67.92L844.94 107.37L889.09 130.27L884.86 121.32Z" fill="url(#paint33_linear_8847_25439)"/>
<path d="M812.52 66.75L848.9 95.41L873.77 108.8L848.44 98.92L806.06 67.92L852.12 111.09L879.32 125.2L874.28 107.26L849.5 92.88L812.52 66.75Z" fill="url(#paint34_linear_8847_25439)"/>
<path d="M813.96 156.12L814.56 142.54L831.5 136.8L813.96 156.12Z" fill="url(#paint35_linear_8847_25439)"/>
<defs>
<linearGradient id="paint0_linear_8847_25439" x1="884.91" y1="121.644" x2="922.947" y2="117.656" gradientUnits="userSpaceOnUse">
<stop stop-color="#F04163"/>
<stop offset="0.447" stop-color="#EE3F61"/>
<stop offset="0.608" stop-color="#E8385A"/>
<stop offset="0.723" stop-color="#DC2D4F"/>
<stop offset="0.816" stop-color="#CC1C3E"/>
<stop offset="0.895" stop-color="#B70629"/>
<stop offset="0.912" stop-color="#B10023"/>
</linearGradient>
<linearGradient id="paint1_linear_8847_25439" x1="963.445" y1="140.485" x2="971.869" y2="128.007" gradientUnits="userSpaceOnUse">
<stop stop-color="#F04163"/>
<stop offset="1" stop-color="#B10023"/>
</linearGradient>
<linearGradient id="paint2_linear_8847_25439" x1="949.315" y1="185.328" x2="967.081" y2="200.266" gradientUnits="userSpaceOnUse">
<stop stop-color="#F04163"/>
<stop offset="0.49" stop-color="#EE3F61"/>
<stop offset="0.667" stop-color="#E8385A"/>
<stop offset="0.793" stop-color="#DC2D4F"/>
<stop offset="0.895" stop-color="#CC1C3E"/>
<stop offset="0.981" stop-color="#B70629"/>
<stop offset="1" stop-color="#B10023"/>
</linearGradient>
<linearGradient id="paint3_linear_8847_25439" x1="818.169" y1="291.204" x2="777.2" y2="281.421" gradientUnits="userSpaceOnUse">
<stop stop-color="#F04163"/>
<stop offset="0.447" stop-color="#EE3F61"/>
<stop offset="0.608" stop-color="#E8385A"/>
<stop offset="0.723" stop-color="#DC2D4F"/>
<stop offset="0.816" stop-color="#CC1C3E"/>
<stop offset="0.895" stop-color="#B70629"/>
<stop offset="0.912" stop-color="#B10023"/>
</linearGradient>
<linearGradient id="paint4_linear_8847_25439" x1="691.294" y1="371.948" x2="734.752" y2="409.506" gradientUnits="userSpaceOnUse">
<stop offset="0.662" stop-color="#F04163"/>
<stop offset="0.861" stop-color="#F04365"/>
<stop offset="0.933" stop-color="#F14A6A"/>
<stop offset="0.984" stop-color="#F25574"/>
<stop offset="1" stop-color="#F25B79"/>
</linearGradient>
<linearGradient id="paint5_linear_8847_25439" x1="424.615" y1="276.956" x2="419.538" y2="268.021" gradientUnits="userSpaceOnUse">
<stop stop-color="#F04163"/>
<stop offset="1" stop-color="#B10023"/>
</linearGradient>
<linearGradient id="paint6_linear_8847_25439" x1="183.686" y1="375.167" x2="207.253" y2="407.065" gradientUnits="userSpaceOnUse">
<stop offset="0.662" stop-color="#F04163"/>
<stop offset="0.861" stop-color="#F04365"/>
<stop offset="0.933" stop-color="#F14A6A"/>
<stop offset="0.984" stop-color="#F25574"/>
<stop offset="1" stop-color="#F25B79"/>
</linearGradient>
<linearGradient id="paint7_linear_8847_25439" x1="330.243" y1="312.355" x2="333.105" y2="324.264" gradientUnits="userSpaceOnUse">
<stop stop-color="#F04163"/>
<stop offset="1" stop-color="#B10023"/>
</linearGradient>
<linearGradient id="paint8_linear_8847_25439" x1="383.43" y1="333.559" x2="407.42" y2="326.333" gradientUnits="userSpaceOnUse">
<stop offset="0.662" stop-color="#F04163"/>
<stop offset="0.828" stop-color="#EE3F61"/>
<stop offset="0.887" stop-color="#E8385A"/>
<stop offset="0.93" stop-color="#DC2D4F"/>
<stop offset="0.964" stop-color="#CC1C3E"/>
<stop offset="0.994" stop-color="#B70629"/>
<stop offset="1" stop-color="#B10023"/>
</linearGradient>
<linearGradient id="paint9_linear_8847_25439" x1="343.162" y1="384.304" x2="302.246" y2="333.771" gradientUnits="userSpaceOnUse">
<stop offset="0.662" stop-color="#EF3459"/>
<stop offset="0.829" stop-color="#ED3257"/>
<stop offset="0.89" stop-color="#E62D51"/>
<stop offset="0.932" stop-color="#DB2347"/>
<stop offset="0.967" stop-color="#CA1539"/>
<stop offset="0.997" stop-color="#B40326"/>
<stop offset="1" stop-color="#B10023"/>
</linearGradient>
<linearGradient id="paint10_linear_8847_25439" x1="398.847" y1="357.401" x2="414.902" y2="350.981" gradientUnits="userSpaceOnUse">
<stop offset="0.574" stop-color="#EF3459"/>
<stop offset="0.778" stop-color="#ED3257"/>
<stop offset="0.851" stop-color="#E62D51"/>
<stop offset="0.904" stop-color="#DB2347"/>
<stop offset="0.946" stop-color="#CA1539"/>
<stop offset="0.982" stop-color="#B40326"/>
<stop offset="0.986" stop-color="#B10023"/>
</linearGradient>
<linearGradient id="paint11_linear_8847_25439" x1="427.382" y1="325.974" x2="361.083" y2="354.579" gradientUnits="userSpaceOnUse">
<stop stop-color="#F04163"/>
<stop offset="1" stop-color="#B10023"/>
</linearGradient>
<linearGradient id="paint12_linear_8847_25439" x1="422.933" y1="360.69" x2="529.978" y2="349.468" gradientUnits="userSpaceOnUse">
<stop stop-color="#F04163"/>
<stop offset="1" stop-color="#B10023"/>
</linearGradient>
<linearGradient id="paint13_linear_8847_25439" x1="548.086" y1="323.327" x2="548.17" y2="262.615" gradientUnits="userSpaceOnUse">
<stop offset="0.662" stop-color="#F04163"/>
<stop offset="0.861" stop-color="#F04365"/>
<stop offset="0.933" stop-color="#F14A6A"/>
<stop offset="0.984" stop-color="#F25574"/>
<stop offset="1" stop-color="#F25B79"/>
</linearGradient>
<linearGradient id="paint14_linear_8847_25439" x1="495.604" y1="376.779" x2="638.366" y2="214.595" gradientUnits="userSpaceOnUse">
<stop stop-color="#F04163"/>
<stop offset="1" stop-color="#B10023"/>
</linearGradient>
<linearGradient id="paint15_linear_8847_25439" x1="555.604" y1="397.498" x2="678.676" y2="245.414" gradientUnits="userSpaceOnUse">
<stop stop-color="#F04163"/>
<stop offset="1" stop-color="#B10023"/>
</linearGradient>
<linearGradient id="paint16_linear_8847_25439" x1="593.613" y1="388.689" x2="622.237" y2="405.059" gradientUnits="userSpaceOnUse">
<stop offset="0.662" stop-color="#F04163"/>
<stop offset="0.861" stop-color="#F04365"/>
<stop offset="0.933" stop-color="#F14A6A"/>
<stop offset="0.984" stop-color="#F25574"/>
<stop offset="1" stop-color="#F25B79"/>
</linearGradient>
<linearGradient id="paint17_linear_8847_25439" x1="671.813" y1="389.248" x2="634.001" y2="368.556" gradientUnits="userSpaceOnUse">
<stop offset="0.466" stop-color="#F04163"/>
<stop offset="0.685" stop-color="#EE3F61"/>
<stop offset="0.763" stop-color="#E8385A"/>
<stop offset="0.82" stop-color="#DC2D4F"/>
<stop offset="0.865" stop-color="#CC1C3E"/>
<stop offset="0.903" stop-color="#B70629"/>
<stop offset="0.912" stop-color="#B10023"/>
</linearGradient>
<linearGradient id="paint18_linear_8847_25439" x1="745.675" y1="374.648" x2="860.885" y2="-15.2205" gradientUnits="userSpaceOnUse">
<stop stop-color="#F04163"/>
<stop offset="1" stop-color="#B10023"/>
</linearGradient>
<linearGradient id="paint19_linear_8847_25439" x1="667.973" y1="373.057" x2="703.093" y2="357.263" gradientUnits="userSpaceOnUse">
<stop offset="0.466" stop-color="#F04163"/>
<stop offset="0.685" stop-color="#EE3F61"/>
<stop offset="0.763" stop-color="#E8385A"/>
<stop offset="0.82" stop-color="#DC2D4F"/>
<stop offset="0.865" stop-color="#CC1C3E"/>
<stop offset="0.903" stop-color="#B70629"/>
<stop offset="0.912" stop-color="#B10023"/>
</linearGradient>
<linearGradient id="paint20_linear_8847_25439" x1="511.542" y1="347.246" x2="760.562" y2="291.481" gradientUnits="userSpaceOnUse">
<stop offset="0.202" stop-color="#F04163"/>
<stop offset="0.55" stop-color="#EE3F61"/>
<stop offset="0.676" stop-color="#E8385A"/>
<stop offset="0.765" stop-color="#DC2D4F"/>
<stop offset="0.837" stop-color="#CC1C3E"/>
<stop offset="0.898" stop-color="#B70629"/>
<stop offset="0.912" stop-color="#B10023"/>
</linearGradient>
<linearGradient id="paint21_linear_8847_25439" x1="685.627" y1="215.64" x2="661.087" y2="272.972" gradientUnits="userSpaceOnUse">
<stop offset="0.202" stop-color="#F04163"/>
<stop offset="0.55" stop-color="#EE3F61"/>
<stop offset="0.676" stop-color="#E8385A"/>
<stop offset="0.765" stop-color="#DC2D4F"/>
<stop offset="0.837" stop-color="#CC1C3E"/>
<stop offset="0.898" stop-color="#B70629"/>
<stop offset="0.912" stop-color="#B10023"/>
</linearGradient>
<linearGradient id="paint22_linear_8847_25439" x1="643.697" y1="172.23" x2="618.106" y2="241.462" gradientUnits="userSpaceOnUse">
<stop offset="0.061" stop-color="#F04163"/>
<stop offset="0.521" stop-color="#EE3F61"/>
<stop offset="0.687" stop-color="#E8385A"/>
<stop offset="0.806" stop-color="#DC2D4F"/>
<stop offset="0.901" stop-color="#CC1C3E"/>
<stop offset="0.982" stop-color="#B70629"/>
<stop offset="1" stop-color="#B10023"/>
</linearGradient>
<linearGradient id="paint23_linear_8847_25439" x1="538.423" y1="171.611" x2="647.924" y2="211.115" gradientUnits="userSpaceOnUse">
<stop offset="0.005" stop-color="#F04163"/>
<stop offset="0.234" stop-color="#EB3C5E"/>
<stop offset="0.501" stop-color="#DE2E50"/>
<stop offset="0.785" stop-color="#C71739"/>
<stop offset="1" stop-color="#B10023"/>
</linearGradient>
<linearGradient id="paint24_linear_8847_25439" x1="576.27" y1="183.666" x2="594.233" y2="154.748" gradientUnits="userSpaceOnUse">
<stop offset="0.058" stop-color="#F04163"/>
<stop offset="0.376" stop-color="#F04365"/>
<stop offset="0.49" stop-color="#F14A6A"/>
<stop offset="0.571" stop-color="#F25574"/>
<stop offset="0.597" stop-color="#F25B79"/>
</linearGradient>
<linearGradient id="paint25_linear_8847_25439" x1="911.057" y1="184.488" x2="904.433" y2="162.888" gradientUnits="userSpaceOnUse">
<stop stop-color="#F04163"/>
<stop offset="0.143" stop-color="#EB3C5E"/>
<stop offset="0.313" stop-color="#DD2E50"/>
<stop offset="0.496" stop-color="#C61639"/>
<stop offset="0.628" stop-color="#B10023"/>
</linearGradient>
<linearGradient id="paint26_linear_8847_25439" x1="873.947" y1="153.852" x2="804.413" y2="81.9482" gradientUnits="userSpaceOnUse">
<stop stop-color="#F15A77"/>
<stop offset="0.04" stop-color="#F15573"/>
<stop offset="0.192" stop-color="#F04A6A"/>
<stop offset="0.406" stop-color="#F04364"/>
<stop offset="1" stop-color="#F04163"/>
</linearGradient>
<linearGradient id="paint27_linear_8847_25439" x1="799.29" y1="87.1973" x2="850.111" y2="168.697" gradientUnits="userSpaceOnUse">
<stop stop-color="#F04163"/>
<stop offset="1" stop-color="#B10023"/>
</linearGradient>
<linearGradient id="paint28_linear_8847_25439" x1="890.038" y1="159.489" x2="859.801" y2="160.589" gradientUnits="userSpaceOnUse">
<stop stop-color="#F04163"/>
<stop offset="0.447" stop-color="#EE3F61"/>
<stop offset="0.608" stop-color="#E8385A"/>
<stop offset="0.723" stop-color="#DC2D4F"/>
<stop offset="0.816" stop-color="#CC1C3E"/>
<stop offset="0.895" stop-color="#B70629"/>
<stop offset="0.912" stop-color="#B10023"/>
</linearGradient>
<linearGradient id="paint29_linear_8847_25439" x1="959.363" y1="153.162" x2="835.889" y2="146.975" gradientUnits="userSpaceOnUse">
<stop stop-color="#F04163"/>
<stop offset="0.448" stop-color="#EE3F61"/>
<stop offset="0.61" stop-color="#E8385A"/>
<stop offset="0.724" stop-color="#DC2D4F"/>
<stop offset="0.817" stop-color="#CC1C3E"/>
<stop offset="0.837" stop-color="#C71739"/>
<stop offset="0.878" stop-color="#BD0D2F"/>
<stop offset="0.912" stop-color="#B10023"/>
</linearGradient>
<linearGradient id="paint30_linear_8847_25439" x1="865.291" y1="137.22" x2="900.326" y2="133.548" gradientUnits="userSpaceOnUse">
<stop stop-color="#F04163"/>
<stop offset="0.447" stop-color="#EE3F61"/>
<stop offset="0.608" stop-color="#E8385A"/>
<stop offset="0.723" stop-color="#DC2D4F"/>
<stop offset="0.816" stop-color="#CC1C3E"/>
<stop offset="0.895" stop-color="#B70629"/>
<stop offset="0.912" stop-color="#B10023"/>
</linearGradient>
<linearGradient id="paint31_linear_8847_25439" x1="865.798" y1="142.051" x2="900.832" y2="138.378" gradientUnits="userSpaceOnUse">
<stop offset="0.088" stop-color="#B10023"/>
<stop offset="0.318" stop-color="#BC0B2E"/>
<stop offset="0.723" stop-color="#D9294B"/>
<stop offset="1" stop-color="#F04163"/>
</linearGradient>
<linearGradient id="paint32_linear_8847_25439" x1="828.125" y1="155.214" x2="830.869" y2="181.387" gradientUnits="userSpaceOnUse">
<stop stop-color="#F15A77"/>
<stop offset="0.04" stop-color="#F15573"/>
<stop offset="0.192" stop-color="#F04A6A"/>
<stop offset="0.406" stop-color="#F04364"/>
<stop offset="1" stop-color="#F04163"/>
</linearGradient>
<linearGradient id="paint33_linear_8847_25439" x1="809.472" y1="100.29" x2="885.129" y2="92.3585" gradientUnits="userSpaceOnUse">
<stop stop-color="#F15A77"/>
<stop offset="0.04" stop-color="#F15573"/>
<stop offset="0.192" stop-color="#F04A6A"/>
<stop offset="0.406" stop-color="#F04364"/>
<stop offset="1" stop-color="#F04163"/>
</linearGradient>
<linearGradient id="paint34_linear_8847_25439" x1="839.419" y1="106.105" x2="847.036" y2="82.7105" gradientUnits="userSpaceOnUse">
<stop stop-color="#F04163"/>
<stop offset="1" stop-color="#B10023"/>
</linearGradient>
<linearGradient id="paint35_linear_8847_25439" x1="825.197" y1="149.064" x2="814.636" y2="137.356" gradientUnits="userSpaceOnUse">
<stop stop-color="#F04163"/>
<stop offset="0.447" stop-color="#EE3F61"/>
<stop offset="0.608" stop-color="#E8385A"/>
<stop offset="0.723" stop-color="#DC2D4F"/>
<stop offset="0.816" stop-color="#CC1C3E"/>
<stop offset="0.895" stop-color="#B70629"/>
<stop offset="0.912" stop-color="#B10023"/>
</linearGradient>
</defs>
</svg>
