<svg width="800" height="480" viewBox="0 0 800 480" fill="none" xmlns="http://www.w3.org/2000/svg">
<path d="M254.48 410.22L247.06 413.46L188.22 410.22L130.76 347.66L136.32 57.1499L161.34 50.6599L170.7 119.56L254.48 410.22Z" fill="url(#paint0_linear_427_5727)"/>
<path d="M161.81 57.15L219.72 32.59L213.24 30.27L161.34 32.59L159.49 51.12L161.81 57.15Z" fill="url(#paint1_linear_427_5727)"/>
<path d="M159.49 51.12L40.4099 40.46L39.9499 51.78L83.5999 76.25L80.9499 79.15L33.6799 76.22V79.85L85.3499 101.63L86.5899 100.11L90.9399 94.82L135.59 109.7L172.46 88.65L170.87 83.93L161.81 57.15L159.49 51.12Z" fill="#4F69C0"/>
<path d="M86.5901 100.11L90.9401 94.8099L132.57 108.69L172.46 88.6499L170.86 83.9299L145.12 99.7699L126.69 105.33L82.3301 91.4299C82.3401 91.4299 82.3401 91.4299 86.5901 100.11Z" fill="url(#paint2_linear_427_5727)"/>
<path d="M126.7 105.33L145.13 99.77L135.63 94.36L126.7 89.27V105.33Z" fill="#293979"/>
<path d="M145.63 49.88L150.48 31.5L156.35 50.65" fill="#4153A0"/>
<path d="M135.63 94.3599L126.7 89.2699L143.27 26.4099L149.14 45.5599V67.1799L135.63 94.3599Z" fill="#4153A0"/>
<path d="M68.44 24.02L40.41 40.46L39.95 53.44L68.44 24.02Z" fill="#4F69C0"/>
<path d="M68.4401 24.02C55.0001 31.66 41.8001 45.1 40.8701 52.51L55.3001 41.8L73.5401 43.02L92.3001 49.5L130.76 49.96L134.7 52.51L135.63 47.18L86.9801 45.1L66.5901 38.27L68.4401 24.02Z" fill="url(#paint3_linear_427_5727)"/>
<path d="M127.16 74.4399V78.6899L94.8501 92.1299C94.8501 92.1299 80.4101 90.0399 79.4801 89.2699C78.5501 88.4999 93.0701 89.2699 93.0701 89.2699L127.16 74.4399Z" fill="url(#paint4_linear_427_5727)"/>
<path d="M93.7899 83.4699L98.3199 78.0399L107.96 71.0399L109.67 63.2099L121.03 58.2999L108.37 57.1499L104.28 68.6599L98.9599 73.5999L92.1399 77.6099L93.7899 83.4699Z" fill="url(#paint5_linear_427_5727)"/>
<path d="M194.93 62.2399L237.56 32.8199L240.11 26.4099L219.72 32.5899L189.61 45.3599L194.93 62.2399Z" fill="url(#paint6_linear_427_5727)"/>
<path d="M189.61 45.3601L178.26 50.1701L189.61 73.0001V83.2901L194.93 62.2401L189.61 45.3601Z" fill="url(#paint7_linear_427_5727)"/>
<path d="M180.64 80.43L181.03 79.85L171.67 52.96L167.22 54.85L180.64 80.43Z" fill="url(#paint8_linear_427_5727)"/>
<path d="M167.22 54.8501L161.81 57.1501L172.11 87.6101L180.64 80.4301" fill="url(#paint9_linear_427_5727)"/>
<path d="M172.46 106.72L172.13 88.8601L166.97 92.1301L170.7 119.56L234.68 341.54V332.37L201.89 214.68L183.12 125.72L184.97 111.82L174.78 90.9701V116.22L172.46 106.72Z" fill="url(#paint10_linear_427_5727)"/>
<path d="M172.11 87.6101L172.13 88.8601L172.46 88.6501L172.11 87.6101Z" fill="url(#paint11_linear_427_5727)"/>
<path d="M189.61 72.9999L178.26 50.1699L171.67 52.9599L181.03 79.8499L172.11 87.6099L172.46 88.6499L172.13 88.8599L172.46 106.72L174.78 116.22V90.9699L189.61 83.2899V72.9999Z" fill="url(#paint12_linear_427_5727)"/>
<path d="M189.61 72.9999L178.26 50.1699L171.67 52.9599L181.03 79.8499L172.11 87.6099L172.46 88.6499L172.13 88.8599L172.46 106.72L174.78 116.22V90.9699L189.61 83.2899V72.9999Z" fill="url(#paint13_linear_427_5727)"/>
<path d="M635.35 351.68L235.56 344.6L254.48 410.22L582.83 416.24L624.53 408.52L644 397.4L677.36 339.94L635.35 351.68Z" fill="url(#paint14_linear_427_5727)"/>
<path d="M635.35 351.68L677.36 339.94L680.34 325.6L675.4 309.13L653.17 274.96L615.71 228.85V223.5L662.23 220.21L728.1 224.32L757.74 233.79L765.97 232.06L762.83 223.5L737.57 215.2L663.46 198.39L615.71 191.39L604.18 197.56L575.78 249.44V271.53L583.19 284.84L635.35 351.68Z" fill="url(#paint15_linear_427_5727)"/>
<path d="M615.71 228.85L651.22 275.61L673.34 309.55L678.32 325.89L674.13 340.84L672.72 341.18L675.71 326.83L670.77 310.37L648.54 276.2L615.71 228.85Z" fill="url(#paint16_linear_427_5727)"/>
<path d="M575.78 249.44L604.18 197.56L615.71 191.39L663.46 198.39L737.57 215.2L762.83 223.5L765.97 232.06L757.74 233.79L728.1 224.32L662.23 220.21L615.71 223.5L593.07 228.85L575.78 249.44Z" fill="url(#paint17_linear_427_5727)"/>
<path d="M635.35 351.68L235.56 344.6L234.68 341.54L264.36 338.4L331.39 339.94L336.33 333.45L469.16 339.94L635.35 351.68Z" fill="url(#paint18_linear_427_5727)"/>
<path d="M275.47 345.3L267.76 382.26L263.12 411.3L270.54 381.64L275.47 345.3Z" fill="url(#paint19_linear_427_5727)"/>
<path d="M334.79 449.91L313.47 443.42L299.57 434.16L303.28 427.98L319.65 428.9L334.79 449.91Z" fill="url(#paint20_linear_427_5727)"/>
<path d="M319.96 423.96L305.75 423.65L304.21 421.49L322.74 413.46L319.96 423.96Z" fill="url(#paint21_linear_427_5727)"/>
<path d="M447.54 455.16H468.54L472.56 447.44L451.86 450.53L447.54 455.16Z" fill="url(#paint22_linear_427_5727)"/>
<path d="M447.54 455.16L444.45 451.45L448.46 445.28L462.67 441.26L455.88 416.55L449.7 364.04L365.37 372.99L352.4 378.3L352.09 374.85L364.75 369.9L399.35 362.18L333.55 351.68L235.56 344.6L507.62 349.02L656.04 359.09L594.26 363.11H460.82L492.02 401.72L483.06 442.5L472.56 447.44L451.86 450.53L447.54 455.16Z" fill="url(#paint23_linear_427_5727)"/>
<path d="M460.82 363.11H594.26L656.04 359.09L359.19 352.76L455.57 361.33L460.05 366.89L465.07 416.24L468.31 427.08L481.05 440.56L469.47 423.96L466.92 416.01L460.82 363.11Z" fill="url(#paint24_linear_427_5727)"/>
<path d="M462.67 441.26L448.46 445.28L444.45 451.45L471.63 439.72L478.27 440.33L465.14 427.08L461.36 416.55L456.49 382.88L456.03 366.2L452.79 361.1L364.12 356.56L401.67 369.14L450.78 363.73L454.33 367.43L454.64 384.27L458.81 418.71L462.67 441.26Z" fill="url(#paint25_linear_427_5727)"/>
<path d="M352.4 378.3L346.53 420.25L343.82 427.08L319.96 423.96L322.74 413.46L332.63 390.6L352.09 374.85L352.4 378.3Z" fill="url(#paint26_linear_427_5727)"/>
<path d="M343.82 427.08L334.79 449.91L319.65 428.9L319.96 423.96L343.82 427.08Z" fill="url(#paint27_linear_427_5727)"/>
<path d="M333.55 351.68L330.98 394.4L332.63 390.6L336.02 360.02L333.55 351.68Z" fill="url(#paint28_linear_427_5727)"/>
<path d="M332.63 390.6L336.02 360.02L333.55 351.68L399.35 362.18L364.75 369.9L352.09 374.85L332.63 390.6Z" fill="url(#paint29_linear_427_5727)"/>
<path d="M399.35 362.18L364.75 369.9L352.09 374.85L352.4 378.3L365.37 372.99L401.67 369.14L402.75 360.23L381.75 359.37L399.35 362.18Z" fill="url(#paint30_linear_427_5727)"/>
<path d="M449.85 365.58L453.41 377.16L458.99 419.74L454.42 416.86L346.96 417.18L352.4 378.3L365.37 372.99L449.85 365.58Z" fill="url(#paint31_linear_427_5727)"/>
<path d="M575.78 249.44V271.53L615.71 228.85V223.5L593.07 228.85L575.78 249.44Z" fill="url(#paint32_linear_427_5727)"/>
<path d="M403.72 233.89C433.92 233.89 445.57 256.04 445.57 287.1C445.57 318.6 433.92 340.6 403.72 340.6C373.52 340.6 362.01 318.6 362.01 287.1C362.02 256.04 373.52 233.89 403.72 233.89ZM403.72 260.5C391.21 260.5 389.77 272.58 389.77 287.11C389.77 302.07 391.21 314 403.72 314C416.23 314 417.67 302.06 417.67 287.11C417.67 272.58 416.23 260.5 403.72 260.5ZM310.24 299.47H290.4L261.49 300.62V323.92H347.64V299.47H310.24Z" fill="white"/>
<path d="M310.24 269.41L290.4 299.47L261.49 300.62L305.64 237.63H310.24V269.41Z" fill="url(#paint33_linear_427_5727)"/>
<path d="M308.08 323.92H336.56V341.18H308.08V323.92Z" fill="url(#paint34_linear_427_5727)"/>
<path d="M336.56 299.47V237.63H310.24V299.47H336.56Z" fill="url(#paint35_linear_427_5727)"/>
<path d="M509.86 299.47H490.01L461.1 300.62V323.92H547.25V299.47H509.86Z" fill="white"/>
<path d="M509.86 269.41L490.01 299.47L461.1 300.62L505.25 237.63H509.86V269.41Z" fill="url(#paint36_linear_427_5727)"/>
<path d="M507.7 323.92H536.18V341.18H507.7V323.92Z" fill="url(#paint37_linear_427_5727)"/>
<path d="M536.17 299.47V237.63H509.86V299.47H536.17Z" fill="url(#paint38_linear_427_5727)"/>
<defs>
<linearGradient id="paint0_linear_427_5727" x1="109.502" y1="82.4499" x2="218.234" y2="429.651" gradientUnits="userSpaceOnUse">
<stop stop-color="#4F69C0"/>
<stop offset="1" stop-color="#30428A"/>
</linearGradient>
<linearGradient id="paint1_linear_427_5727" x1="169.644" y1="44.37" x2="161.304" y2="44.679" gradientUnits="userSpaceOnUse">
<stop stop-color="#4F69C0"/>
<stop offset="1" stop-color="#778BCE"/>
</linearGradient>
<linearGradient id="paint2_linear_427_5727" x1="82.3421" y1="96.3129" x2="172.463" y2="96.3129" gradientUnits="userSpaceOnUse">
<stop offset="0.452" stop-color="#30428A"/>
<stop offset="1" stop-color="#0B1249"/>
</linearGradient>
<linearGradient id="paint3_linear_427_5727" x1="93.2171" y1="51.704" x2="39.4691" y2="31.625" gradientUnits="userSpaceOnUse">
<stop offset="0.452" stop-color="#30428A"/>
<stop offset="1" stop-color="#0B1249"/>
</linearGradient>
<linearGradient id="paint4_linear_427_5727" x1="104.249" y1="83.8169" x2="108.707" y2="93.1509" gradientUnits="userSpaceOnUse">
<stop offset="0.452" stop-color="#30428A"/>
<stop offset="1" stop-color="#0B1249"/>
</linearGradient>
<linearGradient id="paint5_linear_427_5727" x1="92.3346" y1="78.2004" x2="102.284" y2="69.3465" gradientUnits="userSpaceOnUse">
<stop stop-color="#4F69C0"/>
<stop offset="1" stop-color="#0B1249"/>
</linearGradient>
<linearGradient id="paint6_linear_427_5727" x1="211.315" y1="44.3759" x2="193.34" y2="53.2709" gradientUnits="userSpaceOnUse">
<stop stop-color="#4F69C0"/>
<stop offset="1" stop-color="#30428A"/>
</linearGradient>
<linearGradient id="paint7_linear_427_5727" x1="185.01" y1="66.1081" x2="195.899" y2="59.8531" gradientUnits="userSpaceOnUse">
<stop stop-color="#4F69C0"/>
<stop offset="1" stop-color="#30428A"/>
</linearGradient>
<linearGradient id="paint8_linear_427_5727" x1="170.3" y1="56.04" x2="180.886" y2="82.618" gradientUnits="userSpaceOnUse">
<stop stop-color="#4F69C0"/>
<stop offset="1" stop-color="#30428A"/>
</linearGradient>
<linearGradient id="paint9_linear_427_5727" x1="161.806" y1="71.2291" x2="180.64" y2="71.2291" gradientUnits="userSpaceOnUse">
<stop offset="0.297" stop-color="#30428A"/>
<stop offset="1" stop-color="#0B1249"/>
</linearGradient>
<linearGradient id="paint10_linear_427_5727" x1="247.044" y1="213.583" x2="167.708" y2="216.521" gradientUnits="userSpaceOnUse">
<stop stop-color="#4F69C0"/>
<stop offset="1" stop-color="#30428A"/>
</linearGradient>
<linearGradient id="paint11_linear_427_5727" x1="191.979" y1="46.4671" x2="169.735" y2="93.5334" gradientUnits="userSpaceOnUse">
<stop offset="0.297" stop-color="#30428A"/>
<stop offset="1" stop-color="#0B1249"/>
</linearGradient>
<linearGradient id="paint12_linear_427_5727" x1="242.125" y1="80.7659" x2="162.789" y2="83.7039" gradientUnits="userSpaceOnUse">
<stop stop-color="#4F69C0"/>
<stop offset="1" stop-color="#30428A"/>
</linearGradient>
<linearGradient id="paint13_linear_427_5727" x1="191.38" y1="46.1839" x2="169.135" y2="93.2499" gradientUnits="userSpaceOnUse">
<stop offset="0.297" stop-color="#30428A"/>
<stop offset="1" stop-color="#0B1249"/>
</linearGradient>
<linearGradient id="paint14_linear_427_5727" x1="456.659" y1="356.006" x2="458.203" y2="461.958" gradientUnits="userSpaceOnUse">
<stop stop-color="#4F69C0"/>
<stop offset="1" stop-color="#0B1249"/>
</linearGradient>
<linearGradient id="paint15_linear_427_5727" x1="670.428" y1="221.226" x2="673.661" y2="443.026" gradientUnits="userSpaceOnUse">
<stop stop-color="#4F69C0"/>
<stop offset="1" stop-color="#0B1249"/>
</linearGradient>
<linearGradient id="paint16_linear_427_5727" x1="646.616" y1="249.989" x2="648.894" y2="406.288" gradientUnits="userSpaceOnUse">
<stop offset="0.297" stop-color="#30428A"/>
<stop offset="1" stop-color="#0B1249"/>
</linearGradient>
<linearGradient id="paint17_linear_427_5727" x1="594.056" y1="212.395" x2="1110.3" y2="376.654" gradientUnits="userSpaceOnUse">
<stop stop-color="#4F69C0"/>
<stop offset="1" stop-color="#0B1249"/>
</linearGradient>
<linearGradient id="paint18_linear_427_5727" x1="435.012" y1="334.381" x2="435.012" y2="349.568" gradientUnits="userSpaceOnUse">
<stop offset="0.297" stop-color="#30428A"/>
<stop offset="1" stop-color="#0B1249"/>
</linearGradient>
<linearGradient id="paint19_linear_427_5727" x1="269.002" y1="357.953" x2="270.327" y2="448.86" gradientUnits="userSpaceOnUse">
<stop offset="0.297" stop-color="#30428A"/>
<stop offset="1" stop-color="#0B1249"/>
</linearGradient>
<linearGradient id="paint20_linear_427_5727" x1="316.459" y1="445.47" x2="322.625" y2="416.112" gradientUnits="userSpaceOnUse">
<stop stop-color="#4F69C0"/>
<stop offset="1" stop-color="#0B1249"/>
</linearGradient>
<linearGradient id="paint21_linear_427_5727" x1="311.997" y1="424.509" x2="316.757" y2="401.845" gradientUnits="userSpaceOnUse">
<stop offset="0.297" stop-color="#30428A"/>
<stop offset="1" stop-color="#0B1249"/>
</linearGradient>
<linearGradient id="paint22_linear_427_5727" x1="458.828" y1="457.102" x2="463.316" y2="435.731" gradientUnits="userSpaceOnUse">
<stop stop-color="#4F69C0"/>
<stop offset="1" stop-color="#0B1249"/>
</linearGradient>
<linearGradient id="paint23_linear_427_5727" x1="426.025" y1="446.016" x2="474.394" y2="215.691" gradientUnits="userSpaceOnUse">
<stop stop-color="#4F69C0"/>
<stop offset="1" stop-color="#0B1249"/>
</linearGradient>
<linearGradient id="paint24_linear_427_5727" x1="571.954" y1="399.945" x2="305.993" y2="390.909" gradientUnits="userSpaceOnUse">
<stop offset="0.297" stop-color="#30428A"/>
<stop offset="1" stop-color="#0B1249"/>
</linearGradient>
<linearGradient id="paint25_linear_427_5727" x1="412.129" y1="441.62" x2="443.983" y2="289.933" gradientUnits="userSpaceOnUse">
<stop offset="0.297" stop-color="#30428A"/>
<stop offset="1" stop-color="#0B1249"/>
</linearGradient>
<linearGradient id="paint26_linear_427_5727" x1="328.318" y1="393.384" x2="387.627" y2="439.719" gradientUnits="userSpaceOnUse">
<stop stop-color="#4F69C0"/>
<stop offset="1" stop-color="#0B1249"/>
</linearGradient>
<linearGradient id="paint27_linear_427_5727" x1="329.507" y1="436.882" x2="338.058" y2="396.163" gradientUnits="userSpaceOnUse">
<stop stop-color="#4F69C0"/>
<stop offset="1" stop-color="#0B1249"/>
</linearGradient>
<linearGradient id="paint28_linear_427_5727" x1="323.166" y1="379.966" x2="511.903" y2="236.33" gradientUnits="userSpaceOnUse">
<stop stop-color="#4F69C0"/>
<stop offset="1" stop-color="#0B1249"/>
</linearGradient>
<linearGradient id="paint29_linear_427_5727" x1="341.103" y1="331.214" x2="388.828" y2="417.86" gradientUnits="userSpaceOnUse">
<stop stop-color="#4F69C0"/>
<stop offset="1" stop-color="#0B1249"/>
</linearGradient>
<linearGradient id="paint30_linear_427_5727" x1="396.714" y1="363.316" x2="301.538" y2="381.152" gradientUnits="userSpaceOnUse">
<stop stop-color="#4F69C0"/>
<stop offset="1" stop-color="#0B1249"/>
</linearGradient>
<linearGradient id="paint31_linear_427_5727" x1="317.719" y1="392.886" x2="456.028" y2="392.655" gradientUnits="userSpaceOnUse">
<stop stop-color="#4F69C0"/>
<stop offset="0.434" stop-color="#4E68BE"/>
<stop offset="0.591" stop-color="#4A63B7"/>
<stop offset="0.702" stop-color="#435AAC"/>
<stop offset="0.792" stop-color="#3A4E9B"/>
<stop offset="0.87" stop-color="#2D3E85"/>
<stop offset="0.937" stop-color="#1E2A6A"/>
<stop offset="0.997" stop-color="#0C134B"/>
<stop offset="1" stop-color="#0B1249"/>
</linearGradient>
<linearGradient id="paint32_linear_427_5727" x1="587.003" y1="237.368" x2="599.764" y2="252.188" gradientUnits="userSpaceOnUse">
<stop stop-color="#4F69C0"/>
<stop offset="1" stop-color="#0B1249"/>
</linearGradient>
<linearGradient id="paint33_linear_427_5727" x1="303.058" y1="267.543" x2="321.658" y2="263.822" gradientUnits="userSpaceOnUse">
<stop stop-color="white"/>
<stop offset="1" stop-color="#BDBBBC"/>
</linearGradient>
<linearGradient id="paint34_linear_427_5727" x1="322.323" y1="339.245" x2="322.323" y2="325.765" gradientUnits="userSpaceOnUse">
<stop stop-color="white"/>
<stop offset="1" stop-color="#BDBBBC"/>
</linearGradient>
<linearGradient id="paint35_linear_427_5727" x1="323.402" y1="281.034" x2="323.402" y2="298.242" gradientUnits="userSpaceOnUse">
<stop stop-color="white"/>
<stop offset="1" stop-color="#BDBBBC"/>
</linearGradient>
<linearGradient id="paint36_linear_427_5727" x1="502.671" y1="267.543" x2="521.272" y2="263.822" gradientUnits="userSpaceOnUse">
<stop stop-color="white"/>
<stop offset="1" stop-color="#BDBBBC"/>
</linearGradient>
<linearGradient id="paint37_linear_427_5727" x1="521.937" y1="339.245" x2="521.937" y2="325.765" gradientUnits="userSpaceOnUse">
<stop stop-color="white"/>
<stop offset="1" stop-color="#BDBBBC"/>
</linearGradient>
<linearGradient id="paint38_linear_427_5727" x1="523.015" y1="281.034" x2="523.015" y2="298.242" gradientUnits="userSpaceOnUse">
<stop stop-color="white"/>
<stop offset="1" stop-color="#BDBBBC"/>
</linearGradient>
</defs>
</svg>
