<svg xmlns="http://www.w3.org/2000/svg" xml:space="preserve" viewBox="0 0 1024 480"><path fill="none" d="m906.07 127.34 54.86 11.72 2.04-9.45 3.08.34 1.67 15.98-41.01 14.19 16.6 3.87 10 11.81 2.49 7.65 7.65 15.03.26 8.87-7.41.12-17.44-18.28-68.64-11.27 5.39 83.52-131.58 138.11 13.49 16.06-32.93 1.15-10.38-20.68-11.79-23.49-22.08-7.91-30.94 13.8-16.5 19.53 17.3 20.28-37.65-1.99-83.42-75-48.17 7.03-55.9 26.63-2.35-6.34-179.01 13.82-35.08 25.77-152.34-15.74 212.44-57.66-6.97-3.72 82.09-22.95 56.2-9.36-6.69-10.67 6.99-5.68 51.1-24.16 113.83-5.01-27.73-56.94 52.69 16.73-5.15-21.72-.06-5.43-1.72-6.74-22.89-44.59 107.21 52.56 42.77 65.26 56.07.71 22.99-50.88.14-11.56 12.35-27.01 12.02-7.53.6-13.58 16.94-5.74-35-50.73 2.03-3.18 5.51 1.07 40.9 23.41-38.88-39.45 5.76-6.21 6.18 1 62.84 39.57 4.02 19.04"/><linearGradient id="a" x1="668.241" x2="707.495" y1="474.465" y2="474.465" gradientTransform="matrix(.969 -.1016 .0993 .9472 190.27 -259.876)" gradientUnits="userSpaceOnUse"><stop offset="0" stop-color="#f04163"/><stop offset=".447" stop-color="#ee3f61"/><stop offset=".608" stop-color="#e8385a"/><stop offset=".723" stop-color="#dc2d4f"/><stop offset=".816" stop-color="#cc1c3e"/><stop offset=".895" stop-color="#b70629"/><stop offset=".912" stop-color="#b10023"/></linearGradient><path fill="url(#a)" d="m884.86 121.32 14.56-9.11 22.86-.75-16.21 15.88z"/><linearGradient id="b" x1="746.391" x2="756.592" y1="502.739" y2="490.86" gradientTransform="matrix(.969 -.1016 .0993 .9472 190.27 -259.876)" gradientUnits="userSpaceOnUse"><stop offset="0" stop-color="#f04163"/><stop offset="1" stop-color="#b10023"/></linearGradient><path fill="url(#b)" d="m960.93 139.06 2.04-9.45 3.08.34 1.67 15.98z"/><linearGradient id="c" x1="727.169" x2="744.096" y1="548.02" y2="565.179" gradientTransform="matrix(.969 -.1016 .0993 .9472 190.27 -259.876)" gradientUnits="userSpaceOnUse"><stop offset="0" stop-color="#f04163"/><stop offset=".49" stop-color="#ee3f61"/><stop offset=".667" stop-color="#e8385a"/><stop offset=".793" stop-color="#dc2d4f"/><stop offset=".895" stop-color="#cc1c3e"/><stop offset=".981" stop-color="#b70629"/><stop offset="1" stop-color="#b10023"/></linearGradient><path fill="url(#c)" d="m943.31 163.99 10 11.81 2.49 7.65 7.65 15.03.26 8.87-7.41.12-17.44-18.28z"/><linearGradient id="d" x1="581.969" x2="540.994" y1="644.223" y2="630.106" gradientTransform="matrix(.969 -.1016 .0993 .9472 190.27 -259.876)" gradientUnits="userSpaceOnUse"><stop offset="0" stop-color="#f04163"/><stop offset=".447" stop-color="#ee3f61"/><stop offset=".608" stop-color="#e8385a"/><stop offset=".723" stop-color="#dc2d4f"/><stop offset=".816" stop-color="#cc1c3e"/><stop offset=".895" stop-color="#b70629"/><stop offset=".912" stop-color="#b10023"/></linearGradient><path fill="url(#d)" d="m744.03 399.55 131.58-138.11-5.39-83.52-57.56-8.47-16.14 67.97-23 38.02.95 86.29-33.18 34.15z"/><linearGradient id="e" x1="443.818" x2="485.137" y1="714.649" y2="757.69" gradientTransform="matrix(.969 -.1016 .0993 .9472 190.27 -259.876)" gradientUnits="userSpaceOnUse"><stop offset=".662" stop-color="#f04163"/><stop offset=".861" stop-color="#f04365"/><stop offset=".933" stop-color="#f14a6a"/><stop offset=".984" stop-color="#f25574"/><stop offset="1" stop-color="#f25b79"/></linearGradient><path fill="url(#e)" d="m724.59 416.76 32.93-1.15-13.49-16.06-2.74-3.67-17.77 18.74z"/><path fill="#F04163" d="m565.27 253.26-27.73-56.94 52.69 16.73 77.79 33.39-36.71 2.12-58.93 17.06z"/><path fill="#B10023" d="m572.38 265.62 58.93-17.06 36.71-2.12-8.75 3.39-35.16 4.92-47.27 12.38-.42 3.26-5.5.58-9.7-17.53 4.05-.18z"/><path fill="#F04163" d="m576.84 267.13 47.27-12.38 35.16-4.92 6.02 13.96 2.86 15.28-41.98 7.37-38.07 8.45z"/><path fill="#B10023" d="m588.1 294.89 38.07-8.45 41.98-7.37 1.22 3.58-42.74 5.72-36.98 7.67.26 2.45-1.42.15-12.07-28.25.42-3.26z"/><path fill="#F04163" d="m589.65 296.04 36.98-7.67 42.74-5.72 3.18 30.34-70.18 21.45z"/><path fill="#B90030" d="m602.37 334.44 70.18-21.45.34 3.18z"/><path fill="#F04163" d="m602.37 334.44 70.52-18.27 7.45 48.51z"/><linearGradient id="f" x1="181.765" x2="177.375" y1="586.254" y2="576.44" gradientTransform="matrix(.969 -.1016 .0993 .9472 190.27 -259.876)" gradientUnits="userSpaceOnUse"><stop offset="0" stop-color="#f04163"/><stop offset="1" stop-color="#b10023"/></linearGradient><path fill="url(#f)" d="m400.04 298.78-6.69-10.67 6.99-5.68 51.1-24.16-30.6 18.54-15.82 13.2z"/><linearGradient id="g" x1="-74.679" x2="-53.33" y1="662.432" y2="697.898" gradientTransform="matrix(.969 -.1016 .0993 .9472 190.27 -259.876)" gradientUnits="userSpaceOnUse"><stop offset=".662" stop-color="#f04163"/><stop offset=".861" stop-color="#f04365"/><stop offset=".933" stop-color="#f14a6a"/><stop offset=".984" stop-color="#f25574"/><stop offset="1" stop-color="#f25b79"/></linearGradient><path fill="url(#g)" d="M268.72 334.81 56.28 392.47l152.34 15.74 35.08-25.77 54.52-41.33z"/><linearGradient id="h" x1="81.644" x2="83.366" y1="612.886" y2="625.626" gradientTransform="matrix(.969 -.1016 .0993 .9472 190.27 -259.876)" gradientUnits="userSpaceOnUse"><stop offset="0" stop-color="#f04163"/><stop offset="1" stop-color="#b10023"/></linearGradient><path fill="url(#h)" d="m268.72 334.81-6.97-3.72 82.09-22.95 56.2-9.36.51 4.89-73.2 16.09z"/><linearGradient id="i" x1="133.667" x2="158.968" y1="640.853" y2="636.145" gradientTransform="matrix(.969 -.1016 .0993 .9472 190.27 -259.876)" gradientUnits="userSpaceOnUse"><stop offset=".662" stop-color="#f04163"/><stop offset=".828" stop-color="#ee3f61"/><stop offset=".887" stop-color="#e8385a"/><stop offset=".93" stop-color="#dc2d4f"/><stop offset=".964" stop-color="#cc1c3e"/><stop offset=".994" stop-color="#b70629"/><stop offset="1" stop-color="#b10023"/></linearGradient><path fill="url(#i)" d="m268.72 334.81 58.63-15.05 73.2-16.09 16.62 52.34-118.95-14.9z"/><linearGradient id="j" x1="87.132" x2="49.6" y1="689.435" y2="632.965" gradientTransform="matrix(.969 -.1016 .0993 .9472 190.27 -259.876)" gradientUnits="userSpaceOnUse"><stop offset=".662" stop-color="#ef3459"/><stop offset=".829" stop-color="#ed3257"/><stop offset=".89" stop-color="#e62d51"/><stop offset=".932" stop-color="#db2347"/><stop offset=".967" stop-color="#ca1539"/><stop offset=".997" stop-color="#b40326"/><stop offset="1" stop-color="#b10023"/></linearGradient><path fill="url(#j)" d="m298.22 341.11 118.95 14.9 5.54 12.61-179.01 13.82 54.52-41.33"/><linearGradient id="k" x1="146.853" x2="163.985" y1="667.438" y2="662.696" gradientTransform="matrix(.969 -.1016 .0993 .9472 190.27 -259.876)" gradientUnits="userSpaceOnUse"><stop offset=".574" stop-color="#ef3459"/><stop offset=".778" stop-color="#ed3257"/><stop offset=".851" stop-color="#e62d51"/><stop offset=".904" stop-color="#db2347"/><stop offset=".946" stop-color="#ca1539"/><stop offset=".982" stop-color="#b40326"/><stop offset=".986" stop-color="#b10023"/></linearGradient><path fill="url(#k)" d="m366.17 349.62 51 6.39 5.54 12.61-58.58 4.52"/><linearGradient id="l" x1="179.344" x2="108.326" y1="637.744" y2="659.437" gradientTransform="matrix(.969 -.1016 .0993 .9472 190.27 -259.876)" gradientUnits="userSpaceOnUse"><stop offset="0" stop-color="#f04163"/><stop offset="1" stop-color="#b10023"/></linearGradient><path fill="url(#l)" d="m425.06 374.96 55.9-26.63 48.17-7.03-77.69-83.03-30.6 18.54-15.82 13.2-4.98 8.77.51 4.89 16.62 52.34 5.54 12.61z"/><linearGradient id="m" x1="171.087" x2="281.557" y1="673.51" y2="673.51" gradientTransform="matrix(.969 -.1016 .0993 .9472 190.27 -259.876)" gradientUnits="userSpaceOnUse"><stop offset="0" stop-color="#f04163"/><stop offset="1" stop-color="#b10023"/></linearGradient><path fill="url(#m)" d="m425.06 374.96 55.9-26.63 48.17-7.03-5.3-5.67-44.44 10.64-55.19 26.38z"/><linearGradient id="n" x1="302.838" x2="309.725" y1="648.196" y2="584.839" gradientTransform="matrix(.969 -.1016 .0993 .9472 190.27 -259.876)" gradientUnits="userSpaceOnUse"><stop offset=".662" stop-color="#f04163"/><stop offset=".861" stop-color="#f04365"/><stop offset=".933" stop-color="#f14a6a"/><stop offset=".984" stop-color="#f25574"/><stop offset="1" stop-color="#f25b79"/></linearGradient><path fill="url(#n)" d="m561.22 253.44-109.78 4.83 77.69 83.03 83.42 75 14.75-26.6 16.04-21.14 1.64-17.59-42.61-16.53-11.92-36.01-1.96.21-12.07-28.25-5.5.58z"/><linearGradient id="o" x1="243.546" x2="410.03" y1="698.268" y2="548.312" gradientTransform="matrix(.969 -.1016 .0993 .9472 190.27 -259.876)" gradientUnits="userSpaceOnUse"><stop offset="0" stop-color="#f04163"/><stop offset="1" stop-color="#b10023"/></linearGradient><path fill="url(#o)" d="m451.44 258.27 77.69 83.03 83.42 75z"/><linearGradient id="p" x1="302.575" x2="447.711" y1="726.473" y2="584.436" gradientTransform="matrix(.969 -.1016 .0993 .9472 190.27 -259.876)" gradientUnits="userSpaceOnUse"><stop offset="0" stop-color="#f04163"/><stop offset="1" stop-color="#b10023"/></linearGradient><path fill="url(#p)" d="m590.45 298.43 11.92 36.01 42.61 16.53-43.7-16.41-11.7-36.04z"/><linearGradient id="q" x1="342.316" x2="370.207" y1="721.436" y2="741.063" gradientTransform="matrix(.969 -.1016 .0993 .9472 190.27 -259.876)" gradientUnits="userSpaceOnUse"><stop offset=".662" stop-color="#f04163"/><stop offset=".861" stop-color="#f04365"/><stop offset=".933" stop-color="#f14a6a"/><stop offset=".984" stop-color="#f25574"/><stop offset="1" stop-color="#f25b79"/></linearGradient><path fill="url(#q)" d="m627.3 389.7-14.75 26.6 37.65 1.99-17.3-20.28z"/><path fill="#F04163" d="m680.34 364.68-77.97-30.24"/><linearGradient id="r" x1="422.081" x2="385.166" y1="730.582" y2="705.621" gradientTransform="matrix(.969 -.1016 .0993 .9472 190.27 -259.876)" gradientUnits="userSpaceOnUse"><stop offset=".466" stop-color="#f04163"/><stop offset=".685" stop-color="#ee3f61"/><stop offset=".763" stop-color="#e8385a"/><stop offset=".82" stop-color="#dc2d4f"/><stop offset=".865" stop-color="#cc1c3e"/><stop offset=".903" stop-color="#b70629"/><stop offset=".912" stop-color="#b10023"/></linearGradient><path fill="url(#r)" d="m680.34 364.68-30.94 13.8-16.5 19.53-5.6-8.31 16.04-21.14 1.64-17.59z"/><linearGradient id="s" x1="499.039" x2="664.662" y1="723.423" y2="331.574" gradientTransform="matrix(.969 -.1016 .0993 .9472 190.27 -259.876)" gradientUnits="userSpaceOnUse"><stop offset="0" stop-color="#f04163"/><stop offset="1" stop-color="#b10023"/></linearGradient><path fill="url(#s)" d="m723.52 414.62 17.77-18.74 33.18-34.15-.95-86.29 23-38.02 16.14-67.97-10.72-5.8-12.35 27.01-.14 11.56-22.99 50.88-52.25 142.98z"/><path fill="#F04163" d="m702.42 372.59 11.79 23.49 52.25-142.98-56.07-.71-32.29 4.12 42.5 48.22-24.96 41.86z"/><linearGradient id="t" x1="419.893" x2="457.597" y1="713.254" y2="701.116" gradientTransform="matrix(.969 -.1016 .0993 .9472 190.27 -259.876)" gradientUnits="userSpaceOnUse"><stop offset=".466" stop-color="#f04163"/><stop offset=".685" stop-color="#ee3f61"/><stop offset=".763" stop-color="#e8385a"/><stop offset=".82" stop-color="#dc2d4f"/><stop offset=".865" stop-color="#cc1c3e"/><stop offset=".903" stop-color="#b70629"/><stop offset=".912" stop-color="#b10023"/></linearGradient><path fill="url(#t)" d="m695.64 346.59 6.78 26-22.08-7.91z"/><linearGradient id="u" x1="262.975" x2="523.29" y1="669.173" y2="639.561" gradientTransform="matrix(.969 -.1016 .0993 .9472 190.27 -259.876)" gradientUnits="userSpaceOnUse"><stop offset=".202" stop-color="#f04163"/><stop offset=".55" stop-color="#ee3f61"/><stop offset=".676" stop-color="#e8385a"/><stop offset=".765" stop-color="#dc2d4f"/><stop offset=".837" stop-color="#cc1c3e"/><stop offset=".898" stop-color="#b70629"/><stop offset=".912" stop-color="#b10023"/></linearGradient><path fill="url(#u)" d="m680.34 364.68 15.3-18.09 24.96-41.86-42.5-48.22-12.81 7.28 2.86 15.28 1.22 3.58 3.18 30.34.34 3.18z"/><linearGradient id="v" x1="454.76" x2="422.479" y1="550.802" y2="607.359" gradientTransform="matrix(.969 -.1016 .0993 .9472 190.27 -259.876)" gradientUnits="userSpaceOnUse"><stop offset=".202" stop-color="#f04163"/><stop offset=".55" stop-color="#ee3f61"/><stop offset=".676" stop-color="#e8385a"/><stop offset=".765" stop-color="#dc2d4f"/><stop offset=".837" stop-color="#cc1c3e"/><stop offset=".898" stop-color="#b70629"/><stop offset=".912" stop-color="#b10023"/></linearGradient><path fill="url(#v)" d="m678.1 256.51-12.81 7.28-6.02-13.96 8.75-3.39z"/><linearGradient id="w" x1="416.605" x2="381.828" y1="500.879" y2="569.745" gradientTransform="matrix(.969 -.1016 .0993 .9472 190.27 -259.876)" gradientUnits="userSpaceOnUse"><stop offset=".061" stop-color="#f04163"/><stop offset=".521" stop-color="#ee3f61"/><stop offset=".687" stop-color="#e8385a"/><stop offset=".806" stop-color="#dc2d4f"/><stop offset=".901" stop-color="#cc1c3e"/><stop offset=".982" stop-color="#b70629"/><stop offset="1" stop-color="#b10023"/></linearGradient><path fill="url(#w)" d="m590.23 213.05-5.15-21.72-.06-5.43-1.72-6.74-22.89-44.59 107.21 52.56 42.77 65.26-32.29 4.12-10.08-10.07z"/><linearGradient id="x" x1="309.21" x2="417.674" y1="488.707" y2="540.012" gradientTransform="matrix(.969 -.1016 .0993 .9472 190.27 -259.876)" gradientUnits="userSpaceOnUse"><stop offset=".005" stop-color="#f04163"/><stop offset=".234" stop-color="#eb3c5e"/><stop offset=".501" stop-color="#de2e50"/><stop offset=".785" stop-color="#c71739"/><stop offset="1" stop-color="#b10023"/></linearGradient><path fill="url(#x)" d="m585.08 191.33-.06-5.43 61.15 18.65z"/><linearGradient id="y" x1="346.553" x2="368.596" y1="505.439" y2="477.694" gradientTransform="matrix(.969 -.1016 .0993 .9472 190.27 -259.876)" gradientUnits="userSpaceOnUse"><stop offset=".058" stop-color="#f04163"/><stop offset=".376" stop-color="#f04365"/><stop offset=".49" stop-color="#f14a6a"/><stop offset=".571" stop-color="#f25574"/><stop offset=".597" stop-color="#f25b79"/></linearGradient><path fill="url(#y)" d="m583.3 179.16-22.89-44.59 58.6 57"/><linearGradient id="z" x1="688.206" x2="683.557" y1="542.954" y2="519.712" gradientTransform="matrix(.969 -.1016 .0993 .9472 190.27 -259.876)" gradientUnits="userSpaceOnUse"><stop offset="0" stop-color="#f04163"/><stop offset=".143" stop-color="#eb3c5e"/><stop offset=".313" stop-color="#dd2e50"/><stop offset=".496" stop-color="#c61639"/><stop offset=".628" stop-color="#b10023"/></linearGradient><path fill="url(#z)" d="m926.71 160.12 16.6 3.87-4.45 25.2-68.64-11.27z"/><linearGradient id="A" x1="653.604" x2="588.525" y1="506.898" y2="425.636" gradientTransform="matrix(.969 -.1016 .0993 .9472 190.27 -259.876)" gradientUnits="userSpaceOnUse"><stop offset="0" stop-color="#f15a77"/><stop offset=".04" stop-color="#f15573"/><stop offset=".192" stop-color="#f04a6a"/><stop offset=".406" stop-color="#f04364"/><stop offset="1" stop-color="#f04163"/></linearGradient><path fill="url(#A)" d="m862.51 176.75 26.58-46.48-44.15-22.9-40.9-23.41-5.51-1.07-2.03 3.18 35 50.73 25.86 39.23z"/><linearGradient id="B" x1="584.529" x2="629.293" y1="429.119" y2="518.989" gradientTransform="matrix(.969 -.1016 .0993 .9472 190.27 -259.876)" gradientUnits="userSpaceOnUse"><stop offset="0" stop-color="#f04163"/><stop offset="1" stop-color="#b10023"/></linearGradient><path fill="url(#B)" d="M857.36 176.03 831.5 136.8l-35-50.73 2.03-3.18z"/><linearGradient id="C" x1="669.426" x2="638.436" y1="514.547" y2="512.481" gradientTransform="matrix(.969 -.1016 .0993 .9472 190.27 -259.876)" gradientUnits="userSpaceOnUse"><stop offset="0" stop-color="#f04163"/><stop offset=".447" stop-color="#ee3f61"/><stop offset=".608" stop-color="#e8385a"/><stop offset=".723" stop-color="#dc2d4f"/><stop offset=".816" stop-color="#cc1c3e"/><stop offset=".895" stop-color="#b70629"/><stop offset=".912" stop-color="#b10023"/></linearGradient><path fill="url(#C)" d="m893.82 141.64-27.8 2.67 3.53 33.68z"/><linearGradient id="D" x1="740.868" x2="615.359" y1="515.53" y2="496.42" gradientTransform="matrix(.969 -.1016 .0993 .9472 190.27 -259.876)" gradientUnits="userSpaceOnUse"><stop offset="0" stop-color="#f04163"/><stop offset=".448" stop-color="#ee3f61"/><stop offset=".61" stop-color="#e8385a"/><stop offset=".724" stop-color="#dc2d4f"/><stop offset=".817" stop-color="#cc1c3e"/><stop offset=".837" stop-color="#c71739"/><stop offset=".878" stop-color="#bd0d2f"/><stop offset=".912" stop-color="#b10023"/></linearGradient><path fill="url(#D)" d="m870.22 177.92 56.49-17.8 41.01-14.19-6.79-6.87-54.86-11.72-21.21-6.02 4.23 8.95-26.58 46.48z"/><linearGradient id="E" x1="646.548" x2="682.703" y1="488.583" y2="488.583" gradientTransform="matrix(.969 -.1016 .0993 .9472 190.27 -259.876)" gradientUnits="userSpaceOnUse"><stop offset="0" stop-color="#f04163"/><stop offset=".447" stop-color="#ee3f61"/><stop offset=".608" stop-color="#e8385a"/><stop offset=".723" stop-color="#dc2d4f"/><stop offset=".816" stop-color="#cc1c3e"/><stop offset=".895" stop-color="#b70629"/><stop offset=".912" stop-color="#b10023"/></linearGradient><path fill="url(#E)" d="m866.02 144.31 17.01-16.37 17.33 6.09-6.54 7.61z"/><linearGradient id="F" x1="646.548" x2="682.703" y1="493.683" y2="493.683" gradientTransform="matrix(.969 -.1016 .0993 .9472 190.27 -259.876)" gradientUnits="userSpaceOnUse"><stop offset=".088" stop-color="#b10023"/><stop offset=".318" stop-color="#bc0b2e"/><stop offset=".723" stop-color="#d9294b"/><stop offset="1" stop-color="#f04163"/></linearGradient><path fill="url(#F)" d="m866.02 144.31 27.8-2.67 6.54-7.61-6.34 9.45z"/><linearGradient id="G" x1="606.684" x2="606.684" y1="503.303" y2="530.936" gradientTransform="matrix(.969 -.1016 .0993 .9472 190.27 -259.876)" gradientUnits="userSpaceOnUse"><stop offset="0" stop-color="#f15a77"/><stop offset=".04" stop-color="#f15573"/><stop offset=".192" stop-color="#f04a6a"/><stop offset=".406" stop-color="#f04364"/><stop offset="1" stop-color="#f04163"/></linearGradient><path fill="url(#G)" d="m801.94 163.65 12.02-7.53.6-13.58 16.94-5.74 25.86 39.23-44.7-6.58z"/><linearGradient id="H" x1="593.521" x2="671.598" y1="443.906" y2="443.906" gradientTransform="matrix(.969 -.1016 .0993 .9472 190.27 -259.876)" gradientUnits="userSpaceOnUse"><stop offset="0" stop-color="#f15a77"/><stop offset=".04" stop-color="#f15573"/><stop offset=".192" stop-color="#f04a6a"/><stop offset=".406" stop-color="#f04364"/><stop offset="1" stop-color="#f04163"/></linearGradient><path fill="url(#H)" d="m884.86 121.32-4.02-19.04L818 62.71l-6.18-1-5.76 6.21 38.88 39.45 44.15 22.9z"/><linearGradient id="I" x1="623.468" x2="634.143" y1="453.257" y2="429.842" gradientTransform="matrix(.969 -.1016 .0993 .9472 190.27 -259.876)" gradientUnits="userSpaceOnUse"><stop offset="0" stop-color="#f04163"/><stop offset="1" stop-color="#b10023"/></linearGradient><path fill="url(#I)" d="m812.52 66.75 36.38 28.66 24.87 13.39-25.33-9.88-42.38-31 46.06 43.17 27.2 14.11-5.04-17.94-24.78-14.38z"/><linearGradient id="J" x1="604.354" x2="594.541" y1="496.561" y2="483.391" gradientTransform="matrix(.969 -.1016 .0993 .9472 190.27 -259.876)" gradientUnits="userSpaceOnUse"><stop offset="0" stop-color="#f04163"/><stop offset=".447" stop-color="#ee3f61"/><stop offset=".608" stop-color="#e8385a"/><stop offset=".723" stop-color="#dc2d4f"/><stop offset=".816" stop-color="#cc1c3e"/><stop offset=".895" stop-color="#b70629"/><stop offset=".912" stop-color="#b10023"/></linearGradient><path fill="url(#J)" d="m813.96 156.12.6-13.58 16.94-5.74z"/><path fill="#FFF" d="M386.1 213.11c30.19 0 41.84 22.14 41.84 53.2 0 31.49-11.65 53.49-41.84 53.49-30.19 0-41.7-22-41.7-53.49.01-31.06 11.51-53.2 41.7-53.2zm0 26.6c-12.51 0-13.95 12.08-13.95 26.6 0 14.95 1.44 26.89 13.95 26.89s13.95-11.93 13.95-26.89c0-14.53-1.44-26.6-13.95-26.6zm97.34-26.6c30.19 0 41.84 22.14 41.84 53.2 0 31.49-11.65 53.49-41.84 53.49-30.19 0-41.7-22-41.7-53.49.01-31.06 11.51-53.2 41.7-53.2zm0 26.6c-12.51 0-13.95 12.08-13.95 26.6 0 14.95 1.44 26.89 13.95 26.89s13.95-11.93 13.95-26.89c0-14.53-1.44-26.6-13.95-26.6z"/><linearGradient id="K" x1="281.937" x2="299.118" y1="227.7" y2="227.7" gradientUnits="userSpaceOnUse"><stop offset="0" stop-color="#bdbbbc"/><stop offset=".077" stop-color="#c8c6c7"/><stop offset=".285" stop-color="#e0dfe0"/><stop offset=".503" stop-color="#f1f1f1"/><stop offset=".734" stop-color="#fcfcfc"/><stop offset="1" stop-color="#fff"/></linearGradient><path fill="url(#K)" d="M281.04 215.26h42.81v24.87h-42.81z"/><path fill="#FFF" d="M281.04 278.82h-25.92v-63.55h25.92v63.55zm48.56 5.17c0 22.57-13.37 36.38-36.38 36.38-24.44 0-38.53-13.52-38.68-32.35h26.49c.43 3.88 4.13 8.2 11.04 8.2 7.05 0 10.21-5.32 10.21-12.65"/><linearGradient id="L" x1="281.937" x2="299.118" y1="266.881" y2="266.881" gradientUnits="userSpaceOnUse"><stop offset="0" stop-color="#bdbbbc"/><stop offset=".077" stop-color="#c8c6c7"/><stop offset=".285" stop-color="#e0dfe0"/><stop offset=".503" stop-color="#f1f1f1"/><stop offset=".734" stop-color="#fcfcfc"/><stop offset="1" stop-color="#fff"/></linearGradient><path fill="url(#L)" d="M302.28 283.56c0-7.62-3.88-11.5-10.64-11.5-5.46 0-10.03 3.16-10.6 6.76V256.1c3.59-3.74 9.88-6.33 17.65-6.33 21.71 0 30.91 16.68 30.91 34.22l-27.32-.43z"/></svg>