<svg width="793" height="476" viewBox="0 0 793 476" fill="none" xmlns="http://www.w3.org/2000/svg">
<path d="M104.2 55.6L62.5 63.7L28.2999 75.1L0.699951 83.5V90.4L3.99995 108.8L70.6 106.1L22.2999 293C22.2999 293 16.3 298.4 26.1 307.1C35.9 315.8 95.5 369.4 95.5 369.4H113.9C113.9 369.4 122.6 449.6 125.3 463.7C128 477.8 142.6 480.5 143.7 468C144.8 455.5 160 377.5 160 377.5L253.2 384.5L258.6 392.1L266 385.1L356.1 383.5L361 393.8L369.7 391.1L404.4 450.2C404.4 450.2 418.5 465.4 422.8 463.7C427.1 462 422.8 444.2 420.1 431.7C417.4 419.2 409.8 372.6 409.8 372.6L523.1 377.5L557.8 361.3L584.6 349L627.7 312.6L692.1 273.4L742.1 254.9L792.1 247.1L744.4 239.8L689.7 248.2L626.4 270L580.2 292.4L546.9 303.3L526.3 302.8L477.1 282.9L407.6 265.9L503.5 183.6L530.1 170.1L338.3 227L477.6 1L190.3 203.6L202.2 228L197.5 232.7L157.8 233.1L143 264.4L100 270.5L110.5 101.8L80.1 70.8L104.2 55.6Z" fill="#B051EE"/>
<path d="M195.8 232.7L196.3 234.2L266 189.2L330.1 232.3L337.5 230.2L266 183.8L190.4 203.7L202.3 227.9L197.6 232.6L195.8 232.7Z" fill="url(#paint0_linear_8847_25626)"/>
<path d="M192.6 208.3L202.3 227.9L260.5 189.2L192.6 208.3Z" fill="url(#paint1_linear_8847_25626)"/>
<path d="M160 377.5C160 377.5 144.8 455.5 143.7 468C142.6 480.5 128 477.8 125.3 463.7C122.6 449.6 113.9 369.4 113.9 369.4L113.1 353.7L143.2 280.5L146.6 276C146.6 276 158.3 258.3 161.9 252.1C165.4 245.9 188.2 245.1 188.2 245.1L218.8 245.6L175.5 273.2L160 377.5Z" fill="url(#paint2_linear_8847_25626)"/>
<path d="M271.2 217.1L218.7 245.5L175.4 273.1L160 377.5L253.2 384.5L266 385L356.1 383.4C356.1 383.4 352.1 380 353.6 372C355 364.1 385 275.2 385 275.2L271.2 217.1Z" fill="url(#paint3_radial_8847_25626)"/>
<path d="M338.3 226.9C338.3 226.9 323.2 231.5 303.1 237.7L271.3 220.8C271.3 220.8 237 240.2 214.6 254C192.2 267.7 185.7 274.2 188.2 278.4C190.7 282.6 253.2 384.5 253.2 384.5L258.6 392.1L266 385.1L407.6 265.8L503.5 183.5L530.1 170L338.3 226.9ZM206.6 268.1C206.3 268.2 206.1 268.3 205.8 268.4C206.1 268.3 206.4 268.2 206.6 268.1Z" fill="url(#paint4_linear_8847_25626)"/>
<path d="M271.1 222.4L214.6 258C214.6 258 186.8 275.3 205.9 268.5C217.4 264.4 268.6 248.5 303.1 237.8L271.1 222.4Z" fill="url(#paint5_linear_8847_25626)"/>
<path d="M257.2 381.9C254.6 377.6 197.7 284.9 192.6 276.4C192.9 275.8 193.7 274.7 195.5 273C196.4 274 197.8 274.8 199.8 274.9C201 274.9 202.8 274.7 207.4 273C226.2 266.3 338.4 231.9 339.6 231.5L493.2 186L404.4 262.1L262.8 381.5L259.3 384.8L257.2 381.9Z" fill="url(#paint6_linear_8847_25626)"/>
<path d="M113.9 369.4H95.5C95.5 369.4 35.9 315.8 26.1 307.1L79 293.8C79 293.8 138.9 279.7 141 279.4C143.2 279.1 143.2 280.5 143.2 280.5C141.6 284.3 113.1 353.7 113.1 353.7L113.9 369.4Z" fill="url(#paint7_linear_8847_25626)"/>
<path d="M70.6 106L22.3 293C22.3 293 17.8 297.1 23 303.9L79 289.2C79 289.2 129.1 279.9 136 278.4C140.5 277.5 146.7 276 146.7 276C146.7 276 158.4 258.3 162 252.1C165.5 245.9 188.3 245.1 188.3 245.1L218.9 245.6L240.3 233.9L197.7 232.6L158 233L143 264.4L100 270.5L110.5 101.8" fill="url(#paint8_linear_8847_25626)"/>
<path d="M107.6 103.7L79.5999 83.6C78.2999 82.6 76.8999 83.2 76.5999 84.8L71.8999 108.8" fill="url(#paint9_linear_8847_25626)"/>
<path d="M55.6 82.9999L75.8 79.0999L70.6 106L55.6 106.6V82.9999Z" fill="url(#paint10_linear_8847_25626)"/>
<path d="M3.19995 93.1998L75.8 79.0998L110.5 101.9L77.3 74.7998L46.7 80.1998L2.69995 91.7998L3.89995 108.7L3.19995 93.1998Z" fill="#CC8DFC"/>
<path d="M77.3 74.7999L46.7 80.1999L0.699951 90.2999V83.4999L28.2999 75.0999L62.4 63.7999L104.2 55.5999L80.1 70.7999L110.5 101.9" fill="url(#paint11_linear_8847_25626)"/>
<path d="M165.9 252.3C160.1 257.9 165.3 264.1 175.3 273.4V273.1L213.6 248.7L165.9 252.3Z" fill="url(#paint12_linear_8847_25626)"/>
<path d="M147.8 285.4C152.3 274.6 156.9 263.1 159.7 255.8C158.8 257.3 157.8 258.9 156.7 260.6C154 266.1 150.8 272.9 147.6 279.4C140.3 294.3 134.3 304.1 134.1 334.7C133.8 365.3 129.8 435.5 130.6 452C131.4 468.5 128.2 471.8 132.8 471.8C136.4 471.8 136.3 463.9 136.1 445.8C135.8 427.6 139.4 370.2 139.6 341.5C139.7 312.8 140.5 302.7 147.8 285.4Z" fill="url(#paint13_linear_8847_25626)"/>
<path d="M405.7 401.6C390.5 358.6 375.7 325.6 375.7 303.1C374.6 306.4 373.4 309.9 372.2 313.5C371 324.1 370.9 329.2 377.2 347.7C385.6 372.1 415.9 460.7 421.4 460.4C426.9 460.1 422.5 449 405.7 401.6Z" fill="url(#paint14_linear_8847_25626)"/>
<path d="M369.7 391.1L361 393.8L356.1 383.5C349.9 371 361.5 375.9 365.6 383.5C369.7 391.1 369.7 391.1 369.7 391.1Z" fill="url(#paint15_radial_8847_25626)"/>
<path d="M509.3 323.1L474.1 302L401.8 283.1L400.8 271.5L398.5 273.4L407.5 371.7L417.4 430.4C417.4 430.4 426 453.8 422.7 463.5C427 461.9 422.7 444 420 431.5C417.3 419 409.7 372.4 409.7 372.4L402 286.3C436.2 292.2 472.9 304.2 472.9 304.2L507.6 325L554.4 362.7L556.2 361.8L509.3 323.1Z" fill="url(#paint16_linear_8847_25626)"/>
<path d="M518.5 384.1L519.7 384.7V384.3C519.3 384.3 518.9 384.2 518.5 384.1Z" fill="url(#paint17_linear_8847_25626)"/>
<path d="M539.9 351.1L507.7 325.1L473 304.4C473 304.4 460.2 300.2 442.7 295.6C430.5 292.4 416.1 289 402.1 286.5V286.9L409.7 372.6L523 377.5L554.4 362.8L539.9 351.1Z" fill="url(#paint18_linear_8847_25626)"/>
<path d="M190.3 203.6L477.5 0.899902L338.3 226.9L334.2 228.1L266 183.8L190.3 203.6Z" fill="url(#paint19_linear_8847_25626)"/>
<path d="M549.3 353.9L581 322L612 290.7L655.2 269.4L708.7 251.5L753.3 244.8L708.7 252.9L655.4 271.7L612.7 293.5L582 325.4C582 325.4 558.3 351.8 549.3 353.9Z" fill="url(#paint20_linear_8847_25626)"/>
<defs>
<linearGradient id="paint0_linear_8847_25626" x1="282.184" y1="322.415" x2="246.962" y2="118.943" gradientUnits="userSpaceOnUse">
<stop stop-color="#B051EE"/>
<stop offset="0.2659" stop-color="#B154EE"/>
<stop offset="0.4257" stop-color="#B55CEF"/>
<stop offset="0.5576" stop-color="#BB6AF0"/>
<stop offset="0.6742" stop-color="#C57FF2"/>
<stop offset="0.7808" stop-color="#D199F5"/>
<stop offset="0.88" stop-color="#DFB9F8"/>
<stop offset="0.9719" stop-color="#F0DFFC"/>
<stop offset="1" stop-color="#F6ECFD"/>
</linearGradient>
<linearGradient id="paint1_linear_8847_25626" x1="157.723" y1="213.669" x2="592.844" y2="183.595" gradientUnits="userSpaceOnUse">
<stop offset="0.0284417" stop-color="#B051EE"/>
<stop offset="0.2364" stop-color="#9239D0"/>
<stop offset="0.5286" stop-color="#6D1BAC"/>
<stop offset="0.6836" stop-color="#5F109E"/>
</linearGradient>
<linearGradient id="paint2_linear_8847_25626" x1="92.7861" y1="260.058" x2="233.11" y2="430.722" gradientUnits="userSpaceOnUse">
<stop stop-color="#B051EE"/>
<stop offset="0.1112" stop-color="#B153EE"/>
<stop offset="0.1578" stop-color="#B45AEF"/>
<stop offset="0.1923" stop-color="#BA67F0"/>
<stop offset="0.2208" stop-color="#C278F1"/>
<stop offset="0.2454" stop-color="#CC8FF3"/>
<stop offset="0.2574" stop-color="#D29DF4"/>
<stop offset="0.2902" stop-color="#D098F4"/>
<stop offset="0.33" stop-color="#C989F2"/>
<stop offset="0.3733" stop-color="#BE71F0"/>
<stop offset="0.4162" stop-color="#B051EE"/>
<stop offset="0.574" stop-color="#AD4FEB"/>
<stop offset="0.6762" stop-color="#A548E3"/>
<stop offset="0.7627" stop-color="#963CD4"/>
<stop offset="0.8404" stop-color="#812BBF"/>
<stop offset="0.9115" stop-color="#6615A5"/>
<stop offset="0.9267" stop-color="#5F109E"/>
</linearGradient>
<radialGradient id="paint3_radial_8847_25626" cx="0" cy="0" r="1" gradientUnits="userSpaceOnUse" gradientTransform="translate(271.205 254.81) rotate(98.6673) scale(168.104 126.207)">
<stop offset="0.3011" stop-color="#B051EE"/>
<stop offset="0.4425" stop-color="#AB4DE9"/>
<stop offset="0.6083" stop-color="#9D42DB"/>
<stop offset="0.7865" stop-color="#852FC4"/>
<stop offset="0.9723" stop-color="#6514A3"/>
<stop offset="1" stop-color="#5F109E"/>
</radialGradient>
<linearGradient id="paint4_linear_8847_25626" x1="336.935" y1="178.829" x2="400.876" y2="309.6" gradientUnits="userSpaceOnUse">
<stop stop-color="#D29DF4"/>
<stop offset="0.0493164" stop-color="#CA8CF3"/>
<stop offset="0.1334" stop-color="#C176F1"/>
<stop offset="0.2327" stop-color="#B966F0"/>
<stop offset="0.3554" stop-color="#B45AEF"/>
<stop offset="0.5272" stop-color="#B153EE"/>
<stop offset="1" stop-color="#B051EE"/>
</linearGradient>
<linearGradient id="paint5_linear_8847_25626" x1="282.353" y1="209.667" x2="160.704" y2="380.356" gradientUnits="userSpaceOnUse">
<stop offset="0.0284417" stop-color="#B051EE"/>
<stop offset="0.2364" stop-color="#9239D0"/>
<stop offset="0.5286" stop-color="#6D1BAC"/>
<stop offset="0.6836" stop-color="#5F109E"/>
</linearGradient>
<linearGradient id="paint6_linear_8847_25626" x1="192.621" y1="285.371" x2="493.218" y2="285.371" gradientUnits="userSpaceOnUse">
<stop stop-color="#B051EE"/>
<stop offset="1" stop-color="#9A40D9"/>
</linearGradient>
<linearGradient id="paint7_linear_8847_25626" x1="28.014" y1="300.08" x2="130.579" y2="327.563" gradientUnits="userSpaceOnUse">
<stop stop-color="#B051EE"/>
<stop offset="0.0846293" stop-color="#A549E4"/>
<stop offset="0.2146" stop-color="#9D42DC"/>
<stop offset="0.4169" stop-color="#9A40D9"/>
<stop offset="0.7044" stop-color="#983FD7"/>
<stop offset="0.8127" stop-color="#913CD1"/>
<stop offset="0.8906" stop-color="#8537C7"/>
<stop offset="0.9537" stop-color="#7431B8"/>
<stop offset="1" stop-color="#6229A8"/>
</linearGradient>
<linearGradient id="paint8_linear_8847_25626" x1="112.265" y1="171.293" x2="133.216" y2="281.002" gradientUnits="userSpaceOnUse">
<stop stop-color="#B051EE"/>
<stop offset="0.4692" stop-color="#AE4FEC"/>
<stop offset="0.6382" stop-color="#A74AE5"/>
<stop offset="0.7587" stop-color="#9C41DA"/>
<stop offset="0.8561" stop-color="#8B33C9"/>
<stop offset="0.9385" stop-color="#7522B4"/>
<stop offset="1" stop-color="#5F109E"/>
</linearGradient>
<linearGradient id="paint9_linear_8847_25626" x1="89.7674" y1="105.641" x2="89.7674" y2="81.3548" gradientUnits="userSpaceOnUse">
<stop stop-color="#B051EE"/>
<stop offset="0.2659" stop-color="#B154EE"/>
<stop offset="0.4257" stop-color="#B55CEF"/>
<stop offset="0.5576" stop-color="#BB6AF0"/>
<stop offset="0.6742" stop-color="#C57FF2"/>
<stop offset="0.7808" stop-color="#D199F5"/>
<stop offset="0.88" stop-color="#DFB9F8"/>
<stop offset="0.9719" stop-color="#F0DFFC"/>
<stop offset="1" stop-color="#F6ECFD"/>
</linearGradient>
<linearGradient id="paint10_linear_8847_25626" x1="55.5846" y1="92.8774" x2="75.8144" y2="92.8774" gradientUnits="userSpaceOnUse">
<stop stop-color="#B051EE"/>
<stop offset="0.3275" stop-color="#AD4FEC"/>
<stop offset="0.5244" stop-color="#A548E3"/>
<stop offset="0.6869" stop-color="#973DD5"/>
<stop offset="0.8304" stop-color="#832DC1"/>
<stop offset="0.9604" stop-color="#6918A7"/>
<stop offset="1" stop-color="#5F109E"/>
</linearGradient>
<linearGradient id="paint11_linear_8847_25626" x1="51.4477" y1="68.0948" x2="57.5888" y2="98.8007" gradientUnits="userSpaceOnUse">
<stop stop-color="#B051EE"/>
<stop offset="0.3142" stop-color="#AE4FEC"/>
<stop offset="1" stop-color="#5F109E"/>
</linearGradient>
<linearGradient id="paint12_linear_8847_25626" x1="217.97" y1="244.214" x2="102.732" y2="289.731" gradientUnits="userSpaceOnUse">
<stop offset="0.0284417" stop-color="#B051EE"/>
<stop offset="0.2364" stop-color="#9239D0"/>
<stop offset="0.5286" stop-color="#6D1BAC"/>
<stop offset="0.6836" stop-color="#5F109E"/>
</linearGradient>
<linearGradient id="paint13_linear_8847_25626" x1="133.639" y1="363.01" x2="139.419" y2="363.372" gradientUnits="userSpaceOnUse">
<stop offset="0.3164" stop-color="#5F109E"/>
<stop offset="0.4714" stop-color="#6D1BAC"/>
<stop offset="0.7636" stop-color="#9239D0"/>
<stop offset="0.9716" stop-color="#B051EE"/>
</linearGradient>
<linearGradient id="paint14_linear_8847_25626" x1="441.258" y1="367.179" x2="380.795" y2="387.935" gradientUnits="userSpaceOnUse">
<stop offset="0.4945" stop-color="#5F109E"/>
<stop offset="0.5481" stop-color="#6515A4"/>
<stop offset="0.6214" stop-color="#7723B5"/>
<stop offset="0.7057" stop-color="#933AD2"/>
<stop offset="0.7738" stop-color="#B051EE"/>
<stop offset="1" stop-color="#E7C9FA"/>
</linearGradient>
<radialGradient id="paint15_radial_8847_25626" cx="0" cy="0" r="1" gradientUnits="userSpaceOnUse" gradientTransform="translate(363.908 388.162) scale(14.0898 14.0898)">
<stop offset="0.2424" stop-color="#B051EE"/>
<stop offset="0.4469" stop-color="#BE71F0"/>
<stop offset="0.6534" stop-color="#C989F2"/>
<stop offset="0.8435" stop-color="#D098F4"/>
<stop offset="1" stop-color="#D29DF4"/>
</radialGradient>
<linearGradient id="paint16_linear_8847_25626" x1="484.989" y1="287.408" x2="373.634" y2="732.014" gradientUnits="userSpaceOnUse">
<stop stop-color="#B966F0"/>
<stop offset="0.1906" stop-color="#B55CEF"/>
<stop offset="0.4943" stop-color="#B154EE"/>
<stop offset="1" stop-color="#B051EE"/>
</linearGradient>
<linearGradient id="paint17_linear_8847_25626" x1="519.726" y1="382.04" x2="496.249" y2="475.776" gradientUnits="userSpaceOnUse">
<stop stop-color="#B966F0"/>
<stop offset="0.1906" stop-color="#B55CEF"/>
<stop offset="0.4943" stop-color="#B154EE"/>
<stop offset="1" stop-color="#B051EE"/>
</linearGradient>
<linearGradient id="paint18_linear_8847_25626" x1="402.112" y1="332" x2="554.443" y2="332" gradientUnits="userSpaceOnUse">
<stop stop-color="#9A40D9"/>
<stop offset="1" stop-color="#B051EE"/>
</linearGradient>
<linearGradient id="paint19_linear_8847_25626" x1="190.329" y1="114.505" x2="477.52" y2="114.505" gradientUnits="userSpaceOnUse">
<stop stop-color="#9A40D9"/>
<stop offset="1" stop-color="#B051EE"/>
</linearGradient>
<linearGradient id="paint20_linear_8847_25626" x1="549.318" y1="299.378" x2="753.408" y2="299.378" gradientUnits="userSpaceOnUse">
<stop stop-color="#B051EE"/>
<stop offset="1" stop-color="#9A40D9"/>
</linearGradient>
</defs>
</svg>
