<svg xmlns="http://www.w3.org/2000/svg" height="800" width="1200" viewBox="-40.501875 -14.16015 351.01625 84.9609"><g fill="#ea293c"><path d="M135.7275 55.166h4.8701V1.601h-4.8701zM202.83 1.6011h15.5488V6.065h-5.2875v49.101h-4.895V6.065H202.83V1.6011m-71.5575 0v53.565H126.17l-7.2984-32.5367V55.166h-4.7852V1.6011h4.4029l7.997 35.4742V1.601h4.7862m-105.9571.0001v53.565h-4.7867V9.25l-5.908 45.916h-3.9889L4.8198 9.25v45.916H0V1.6011h8.1524l4.668 32.289 4.4032-32.289h8.0918m59.3482 53.5786c3.789-5.1445 6.0278-11.4956 6.0278-18.378 0-17.119-13.8804-31.0004-31.0005-31.0004-17.1225 0-31.0044 13.8813-31.0044 31.0004 0 6.8776 2.2369 13.2374 6.0225 18.378h6.4482c-4.681-4.7207-7.5732-11.2036-7.5732-18.378 0-14.415 11.6875-26.104 26.1069-26.104 14.416 0 26.1055 11.689 26.1055 26.104 0 7.1646-2.8868 13.6573-7.5587 18.378h6.426m144.8888-16.9219L226.3113 8.727l-2.985 29.5308zm6.4662 16.9082h-4.765l-1.2562-12.0664h-7.13l-1.1637 12.0664h-4.8563l5.4888-53.5649h7.4287l6.2538 53.565m-58.2125-6.8091c0 2.417-1.4175 3.6474-3.0438 3.6474-1.625 0-3.0437-1.2305-3.0437-3.6475V7.9024c0-2.4122 1.4187-3.645 3.0437-3.645 1.6263 0 3.0438 1.2329 3.0438 3.645l-.01 1.934V19.935h4.9v-7.7861l-.0125-2.2485C182.65 3.2236 180.04.0435 174.5925.0435c-4.8525 0-8.01 3.4409-8.01 8.7226l.005 1.9668v33.5298l-.005 2.168c0 6.8603 2.6675 10.21 8.1287 10.21 5.4463 0 7.985-3.2886 7.985-10.3516V26.8018h-8.9987v4.6908h4.0988v15.088l.01 1.7763m20.0862-1.2856V33.1455l-11.1675-8.3384V9.2456C186.725 3.13 189.4813 0 194.8725 0c5.4688 0 7.9575 3.106 7.995 9.979l.0125 2.1372v7.892h-4.9875V9.421l-.015-1.5185c0-2.4122-1.405-3.645-3.01-3.645-1.6112 0-3.015 1.2328-3.015 3.645v14.583l11.0275 8.3242V46.915c0 6.3003-2.8025 9.6695-8.0412 9.6695-5.305 0-8.0663-3.1812-8.1-9.3203l-.0138-2.1202V34.6631h5.1275V48.357c0 2.417 1.4038 3.6475 3.015 3.6475 1.605 0 3.01-1.2305 3.01-3.6475l.015-1.2856M98.835 5.8179v21.2109h1.7188c3.1542 0 4.6386-1.4478 4.6386-4.5224v-10.916c0-4.397-1.0172-5.7725-4.2725-5.7725zm12.2875 49.3481h-4.8803c-.669-1.8052-.962-3.496-.9927-5.7627l-.039-2.7422-.0181-1.3852V34.8184c0-2.1954-1.3355-3.1939-2.8774-3.1939h-3.48V55.166h-4.7827V1.6011h6.2387c7.0084 0 9.7061 2.5615 9.7061 9.417v10.0562c0 4.5058-.7545 6.3973-4.2799 7.6977.05.0161.0987.0341.149.0498 3.3287.9722 4.0747 2.2368 4.1123 6.459l.0186 1.9457v9.7794c0 3.5615.267 5.4926 1.1254 8.1601m130.95-49.3481v21.2109h1.7212c3.1563 0 4.6388-1.4478 4.6388-4.5224v-10.916c0-4.397-1.0175-5.7725-4.2775-5.7725zM254.36 55.166h-4.8813c-.6687-1.8052-.96-3.496-.9925-5.7627l-.04-2.7422-.0137-1.3852V34.8184c0-2.1954-1.3388-3.1939-2.8825-3.1939h-3.4775V55.166H237.29V1.6011h6.2388c7.0112 0 9.7037 2.5615 9.7037 9.417v10.0562c0 4.5058-.7512 6.3973-4.275 7.6977.0462.0161.0988.0341.145.0498 3.3263.9722 4.0788 2.2368 4.1138 6.459l.0162 1.9457v9.7794c0 3.5615.27 5.4926 1.1275 8.1601M162.165 1.6011v53.565h-5.105l-7.2912-32.5367V55.166h-4.7875V1.6011h4.405l7.9912 35.4742V1.601h4.7875m96.4038 5.4113c0-2.9854 2.4237-5.4137 5.4087-5.4137 2.9875 0 5.4112 2.4283 5.4112 5.4137 0 2.9857-2.4237 5.4145-5.4112 5.4145-2.985 0-5.4088-2.4288-5.4088-5.4145zm-.6225 0c0 3.327 2.7037 6.034 6.0312 6.034 3.3262 0 6.035-2.707 6.035-6.034 0-3.3263-2.7087-6.0333-6.035-6.0333-3.3275 0-6.0313 2.707-6.0313 6.0333"/><path d="M262.6575 6.813h1.78c.7362 0 1.2537-.2359 1.2537-1.0284 0-.7875-.5174-1.0292-1.2537-1.0292h-1.78zm-.7875-2.7446h2.69c.9375 0 1.9175.3589 1.9175 1.7162 0 .7608-.3438 1.4952-1.38 1.6637l1.64 2.5742h-.9525l-1.605-2.525h-1.5225v2.525h-.7875V4.0684"/></g></svg>